<mxfile host="app.diagrams.net" modified="2021-09-10T06:53:34.866Z" agent="5.0 (Windows)" etag="Zi32B-7clkAaA96DKaO3" version="15.1.0" type="github">
  <diagram id="jBadv7jzQk303qV6k1zK" name="Page-1">
    <mxGraphModel dx="1159" dy="635" grid="1" gridSize="10" guides="1" tooltips="1" connect="1" arrows="1" fold="1" page="1" pageScale="1" pageWidth="850" pageHeight="1100" math="0" shadow="0">
      <root>
        <mxCell id="0" />
        <mxCell id="1" parent="0" />
        <mxCell id="R_-WvSaThvEhrNufHfvD-1" value="" style="endArrow=classic;html=1;endFill=1;exitX=0.25;exitY=1;exitDx=0;exitDy=0;" parent="1" edge="1">
          <mxGeometry width="50" height="50" relative="1" as="geometry">
            <mxPoint x="27.5" y="305" as="sourcePoint" />
            <mxPoint x="287.5" y="305" as="targetPoint" />
          </mxGeometry>
        </mxCell>
        <mxCell id="R_-WvSaThvEhrNufHfvD-2" value="" style="shape=waypoint;sketch=0;fillStyle=solid;size=6;pointerEvents=1;points=[];fillColor=#e51400;resizable=0;rotatable=0;perimeter=centerPerimeter;snapToPoint=1;strokeColor=#B20000;fontColor=#ffffff;" parent="1" vertex="1">
          <mxGeometry x="47.5" y="245" width="40" height="40" as="geometry" />
        </mxCell>
        <mxCell id="R_-WvSaThvEhrNufHfvD-9" value="" style="line;strokeWidth=1;direction=south;html=1;" parent="1" vertex="1">
          <mxGeometry x="62.5" y="300" width="10" height="10" as="geometry" />
        </mxCell>
        <mxCell id="R_-WvSaThvEhrNufHfvD-11" value="" style="line;strokeWidth=1;direction=south;html=1;" parent="1" vertex="1">
          <mxGeometry x="102.5" y="300" width="10" height="10" as="geometry" />
        </mxCell>
        <mxCell id="R_-WvSaThvEhrNufHfvD-12" value="" style="shape=waypoint;sketch=0;fillStyle=solid;size=6;pointerEvents=1;points=[];fillColor=#e51400;resizable=0;rotatable=0;perimeter=centerPerimeter;snapToPoint=1;strokeColor=#B20000;fontColor=#ffffff;" parent="1" vertex="1">
          <mxGeometry x="87.5" y="235" width="40" height="40" as="geometry" />
        </mxCell>
        <mxCell id="R_-WvSaThvEhrNufHfvD-14" value="" style="line;strokeWidth=1;direction=south;html=1;" parent="1" vertex="1">
          <mxGeometry x="142.5" y="300" width="10" height="10" as="geometry" />
        </mxCell>
        <mxCell id="R_-WvSaThvEhrNufHfvD-15" value="" style="shape=waypoint;sketch=0;fillStyle=solid;size=6;pointerEvents=1;points=[];fillColor=#e51400;resizable=0;rotatable=0;perimeter=centerPerimeter;snapToPoint=1;strokeColor=#B20000;fontColor=#ffffff;" parent="1" vertex="1">
          <mxGeometry x="127.5" y="255" width="40" height="40" as="geometry" />
        </mxCell>
        <mxCell id="R_-WvSaThvEhrNufHfvD-16" value="" style="shape=waypoint;sketch=0;fillStyle=solid;size=6;pointerEvents=1;points=[];fillColor=#e51400;resizable=0;rotatable=0;perimeter=centerPerimeter;snapToPoint=1;strokeColor=#B20000;fontColor=#ffffff;" parent="1" vertex="1">
          <mxGeometry x="167.5" y="225" width="40" height="40" as="geometry" />
        </mxCell>
        <mxCell id="R_-WvSaThvEhrNufHfvD-18" value="" style="shape=waypoint;sketch=0;fillStyle=solid;size=6;pointerEvents=1;points=[];fillColor=#e51400;resizable=0;rotatable=0;perimeter=centerPerimeter;snapToPoint=1;strokeColor=#B20000;fontColor=#ffffff;" parent="1" vertex="1">
          <mxGeometry x="207.5" y="255" width="40" height="40" as="geometry" />
        </mxCell>
        <mxCell id="R_-WvSaThvEhrNufHfvD-20" value="" style="line;strokeWidth=1;direction=south;html=1;" parent="1" vertex="1">
          <mxGeometry x="182.5" y="300" width="10" height="10" as="geometry" />
        </mxCell>
        <mxCell id="R_-WvSaThvEhrNufHfvD-21" value="" style="line;strokeWidth=1;direction=south;html=1;" parent="1" vertex="1">
          <mxGeometry x="222.5" y="300" width="10" height="10" as="geometry" />
        </mxCell>
        <mxCell id="R_-WvSaThvEhrNufHfvD-22" value="" style="line;strokeWidth=1;direction=south;html=1;" parent="1" vertex="1">
          <mxGeometry x="262.5" y="300" width="10" height="10" as="geometry" />
        </mxCell>
        <mxCell id="R_-WvSaThvEhrNufHfvD-26" value="" style="shape=waypoint;sketch=0;fillStyle=solid;size=6;pointerEvents=1;points=[];fillColor=#60a917;resizable=0;rotatable=0;perimeter=centerPerimeter;snapToPoint=1;strokeColor=#2D7600;fontColor=#ffffff;" parent="1" vertex="1">
          <mxGeometry x="47.5" y="185" width="40" height="40" as="geometry" />
        </mxCell>
        <mxCell id="R_-WvSaThvEhrNufHfvD-27" value="" style="shape=waypoint;sketch=0;fillStyle=solid;size=6;pointerEvents=1;points=[];fillColor=#60a917;resizable=0;rotatable=0;perimeter=centerPerimeter;snapToPoint=1;strokeColor=#2D7600;fontColor=#ffffff;" parent="1" vertex="1">
          <mxGeometry x="87.5" y="175" width="40" height="40" as="geometry" />
        </mxCell>
        <mxCell id="R_-WvSaThvEhrNufHfvD-28" value="" style="shape=waypoint;sketch=0;fillStyle=solid;size=6;pointerEvents=1;points=[];fillColor=#60a917;resizable=0;rotatable=0;perimeter=centerPerimeter;snapToPoint=1;strokeColor=#2D7600;fontColor=#ffffff;" parent="1" vertex="1">
          <mxGeometry x="127.5" y="195" width="40" height="40" as="geometry" />
        </mxCell>
        <mxCell id="R_-WvSaThvEhrNufHfvD-29" value="" style="shape=waypoint;sketch=0;fillStyle=solid;size=6;pointerEvents=1;points=[];fillColor=#60a917;resizable=0;rotatable=0;perimeter=centerPerimeter;snapToPoint=1;strokeColor=#2D7600;fontColor=#ffffff;" parent="1" vertex="1">
          <mxGeometry x="167.5" y="185" width="40" height="40" as="geometry" />
        </mxCell>
        <mxCell id="R_-WvSaThvEhrNufHfvD-30" value="" style="shape=waypoint;sketch=0;fillStyle=solid;size=6;pointerEvents=1;points=[];fillColor=#60a917;resizable=0;rotatable=0;perimeter=centerPerimeter;snapToPoint=1;strokeColor=#2D7600;fontColor=#ffffff;" parent="1" vertex="1">
          <mxGeometry x="207.5" y="165" width="40" height="40" as="geometry" />
        </mxCell>
        <mxCell id="R_-WvSaThvEhrNufHfvD-33" value="" style="line;strokeWidth=2;html=1;fillColor=#60a917;strokeColor=#2D7600;fontColor=#ffffff;dashed=1;" parent="1" vertex="1">
          <mxGeometry x="67.5" y="200" width="40" height="10" as="geometry" />
        </mxCell>
        <mxCell id="R_-WvSaThvEhrNufHfvD-34" value="" style="line;strokeWidth=2;html=1;fillColor=#60a917;strokeColor=#2D7600;fontColor=#ffffff;dashed=1;" parent="1" vertex="1">
          <mxGeometry x="107.5" y="190" width="40" height="10" as="geometry" />
        </mxCell>
        <mxCell id="R_-WvSaThvEhrNufHfvD-35" value="" style="line;strokeWidth=2;html=1;fillColor=#60a917;strokeColor=#2D7600;fontColor=#ffffff;dashed=1;" parent="1" vertex="1">
          <mxGeometry x="147.5" y="210" width="40" height="10" as="geometry" />
        </mxCell>
        <mxCell id="R_-WvSaThvEhrNufHfvD-36" value="" style="line;strokeWidth=2;html=1;fillColor=#60a917;strokeColor=#2D7600;fontColor=#ffffff;dashed=1;" parent="1" vertex="1">
          <mxGeometry x="187.5" y="200" width="40" height="10" as="geometry" />
        </mxCell>
        <mxCell id="R_-WvSaThvEhrNufHfvD-37" value="" style="line;strokeWidth=2;html=1;fillColor=#60a917;strokeColor=#2D7600;fontColor=#ffffff;dashed=1;" parent="1" vertex="1">
          <mxGeometry x="227.5" y="180" width="40" height="10" as="geometry" />
        </mxCell>
        <mxCell id="R_-WvSaThvEhrNufHfvD-42" value="" style="shape=waypoint;sketch=0;fillStyle=solid;size=6;pointerEvents=1;points=[];fillColor=#1ba1e2;resizable=0;rotatable=0;perimeter=centerPerimeter;snapToPoint=1;strokeColor=#006EAF;fontColor=#ffffff;" parent="1" vertex="1">
          <mxGeometry x="47.5" y="140" width="40" height="40" as="geometry" />
        </mxCell>
        <mxCell id="R_-WvSaThvEhrNufHfvD-43" value="" style="shape=waypoint;sketch=0;fillStyle=solid;size=6;pointerEvents=1;points=[];fillColor=#1ba1e2;resizable=0;rotatable=0;perimeter=centerPerimeter;snapToPoint=1;strokeColor=#006EAF;fontColor=#ffffff;" parent="1" vertex="1">
          <mxGeometry x="87.5" y="120" width="40" height="40" as="geometry" />
        </mxCell>
        <mxCell id="R_-WvSaThvEhrNufHfvD-44" value="" style="shape=waypoint;sketch=0;fillStyle=solid;size=6;pointerEvents=1;points=[];fillColor=#1ba1e2;resizable=0;rotatable=0;perimeter=centerPerimeter;snapToPoint=1;strokeColor=#006EAF;fontColor=#ffffff;" parent="1" vertex="1">
          <mxGeometry x="127.5" y="140" width="40" height="40" as="geometry" />
        </mxCell>
        <mxCell id="R_-WvSaThvEhrNufHfvD-45" value="" style="shape=waypoint;sketch=0;fillStyle=solid;size=6;pointerEvents=1;points=[];fillColor=#1ba1e2;resizable=0;rotatable=0;perimeter=centerPerimeter;snapToPoint=1;strokeColor=#006EAF;fontColor=#ffffff;" parent="1" vertex="1">
          <mxGeometry x="167.5" y="130" width="40" height="40" as="geometry" />
        </mxCell>
        <mxCell id="R_-WvSaThvEhrNufHfvD-46" value="" style="shape=waypoint;sketch=0;fillStyle=solid;size=6;pointerEvents=1;points=[];fillColor=#1ba1e2;resizable=0;rotatable=0;perimeter=centerPerimeter;snapToPoint=1;strokeColor=#006EAF;fontColor=#ffffff;" parent="1" vertex="1">
          <mxGeometry x="207.5" y="120" width="40" height="40" as="geometry" />
        </mxCell>
        <mxCell id="R_-WvSaThvEhrNufHfvD-50" value="t&lt;sub style=&quot;font-size: 10px;&quot;&gt;0&lt;/sub&gt;" style="text;html=1;strokeColor=none;fillColor=none;align=center;verticalAlign=middle;whiteSpace=wrap;rounded=0;fontSize=10;" parent="1" vertex="1">
          <mxGeometry x="47.5" y="310" width="40" height="20" as="geometry" />
        </mxCell>
        <mxCell id="R_-WvSaThvEhrNufHfvD-51" value="t&lt;sub style=&quot;font-size: 10px;&quot;&gt;1&lt;/sub&gt;" style="text;html=1;strokeColor=none;fillColor=none;align=center;verticalAlign=middle;whiteSpace=wrap;rounded=0;fontSize=10;" parent="1" vertex="1">
          <mxGeometry x="87.5" y="310" width="40" height="20" as="geometry" />
        </mxCell>
        <mxCell id="R_-WvSaThvEhrNufHfvD-52" value="t&lt;sub style=&quot;font-size: 10px;&quot;&gt;2&lt;/sub&gt;" style="text;html=1;strokeColor=none;fillColor=none;align=center;verticalAlign=middle;whiteSpace=wrap;rounded=0;fontSize=10;" parent="1" vertex="1">
          <mxGeometry x="127.5" y="310" width="40" height="20" as="geometry" />
        </mxCell>
        <mxCell id="R_-WvSaThvEhrNufHfvD-53" value="t&lt;sub style=&quot;font-size: 10px;&quot;&gt;3&lt;/sub&gt;" style="text;html=1;strokeColor=none;fillColor=none;align=center;verticalAlign=middle;whiteSpace=wrap;rounded=0;fontSize=10;" parent="1" vertex="1">
          <mxGeometry x="167.5" y="310" width="40" height="20" as="geometry" />
        </mxCell>
        <mxCell id="R_-WvSaThvEhrNufHfvD-54" value="t&lt;sub style=&quot;font-size: 10px;&quot;&gt;4&lt;/sub&gt;" style="text;html=1;strokeColor=none;fillColor=none;align=center;verticalAlign=middle;whiteSpace=wrap;rounded=0;fontSize=10;" parent="1" vertex="1">
          <mxGeometry x="207.5" y="310" width="40" height="20" as="geometry" />
        </mxCell>
        <mxCell id="R_-WvSaThvEhrNufHfvD-55" value="t&lt;sub style=&quot;font-size: 10px;&quot;&gt;5&lt;/sub&gt;" style="text;html=1;strokeColor=none;fillColor=none;align=center;verticalAlign=middle;whiteSpace=wrap;rounded=0;fontSize=10;" parent="1" vertex="1">
          <mxGeometry x="247.5" y="310" width="40" height="20" as="geometry" />
        </mxCell>
        <mxCell id="R_-WvSaThvEhrNufHfvD-57" value="&lt;div&gt;y&lt;sub&gt;t&lt;/sub&gt;&lt;/div&gt;&lt;div&gt;&lt;span style=&quot;font-weight: normal&quot;&gt;(output)&lt;/span&gt;&lt;/div&gt;" style="text;align=center;verticalAlign=middle;rounded=0;fontColor=#004C99;fontStyle=1;spacing=0;whiteSpace=wrap;html=1;" parent="1" vertex="1">
          <mxGeometry x="17.5" y="120" width="40" height="45" as="geometry" />
        </mxCell>
        <mxCell id="R_-WvSaThvEhrNufHfvD-58" value="&lt;div&gt;z&lt;sub&gt;t&lt;/sub&gt;&lt;/div&gt;&lt;div&gt;&lt;sub&gt;&lt;span style=&quot;font-weight: normal&quot;&gt;(hidden state)&lt;/span&gt;&lt;br&gt;&lt;/sub&gt;&lt;/div&gt;" style="text;html=1;align=center;verticalAlign=middle;whiteSpace=wrap;rounded=0;fontColor=#336600;fontStyle=1" parent="1" vertex="1">
          <mxGeometry x="17.5" y="165" width="40" height="55" as="geometry" />
        </mxCell>
        <mxCell id="R_-WvSaThvEhrNufHfvD-59" value="&lt;div&gt;x&lt;sub&gt;t&lt;/sub&gt;&lt;/div&gt;&lt;div&gt;&lt;sub&gt;&lt;span style=&quot;font-weight: normal&quot;&gt;(input)&lt;/span&gt;&lt;br&gt;&lt;/sub&gt;&lt;/div&gt;" style="text;html=1;align=center;verticalAlign=middle;whiteSpace=wrap;rounded=0;fontStyle=1;fontColor=#990000;" parent="1" vertex="1">
          <mxGeometry x="17.5" y="235" width="40" height="50" as="geometry" />
        </mxCell>
        <mxCell id="R_-WvSaThvEhrNufHfvD-63" value="" style="endArrow=none;dashed=1;html=1;fontColor=#000000;exitX=0.582;exitY=0.503;exitDx=0;exitDy=0;exitPerimeter=0;fillColor=#1ba1e2;strokeColor=#006EAF;" parent="1" source="R_-WvSaThvEhrNufHfvD-42" edge="1">
          <mxGeometry width="50" height="50" relative="1" as="geometry">
            <mxPoint x="167.5" y="185" as="sourcePoint" />
            <mxPoint x="107.5" y="160" as="targetPoint" />
          </mxGeometry>
        </mxCell>
        <mxCell id="R_-WvSaThvEhrNufHfvD-64" value="" style="endArrow=none;dashed=1;html=1;fontColor=#000000;exitX=0.582;exitY=0.503;exitDx=0;exitDy=0;exitPerimeter=0;fillColor=#1ba1e2;strokeColor=#006EAF;" parent="1" edge="1">
          <mxGeometry width="50" height="50" relative="1" as="geometry">
            <mxPoint x="107.5" y="139.67000000000002" as="sourcePoint" />
            <mxPoint x="147.5" y="139.67000000000002" as="targetPoint" />
          </mxGeometry>
        </mxCell>
        <mxCell id="R_-WvSaThvEhrNufHfvD-65" value="" style="endArrow=none;dashed=1;html=1;fontColor=#000000;exitX=0.582;exitY=0.503;exitDx=0;exitDy=0;exitPerimeter=0;fillColor=#1ba1e2;strokeColor=#006EAF;" parent="1" edge="1">
          <mxGeometry width="50" height="50" relative="1" as="geometry">
            <mxPoint x="147.5" y="159.67000000000002" as="sourcePoint" />
            <mxPoint x="187.5" y="159.67000000000002" as="targetPoint" />
          </mxGeometry>
        </mxCell>
        <mxCell id="R_-WvSaThvEhrNufHfvD-67" value="" style="endArrow=none;dashed=1;html=1;fontColor=#000000;exitX=0.582;exitY=0.503;exitDx=0;exitDy=0;exitPerimeter=0;fillColor=#1ba1e2;strokeColor=#006EAF;" parent="1" edge="1">
          <mxGeometry width="50" height="50" relative="1" as="geometry">
            <mxPoint x="187.5" y="150.00000000000006" as="sourcePoint" />
            <mxPoint x="227.5" y="150.00000000000006" as="targetPoint" />
          </mxGeometry>
        </mxCell>
        <mxCell id="R_-WvSaThvEhrNufHfvD-68" value="" style="endArrow=none;dashed=1;html=1;fontColor=#000000;exitX=0.582;exitY=0.503;exitDx=0;exitDy=0;exitPerimeter=0;fillColor=#1ba1e2;strokeColor=#006EAF;" parent="1" edge="1">
          <mxGeometry width="50" height="50" relative="1" as="geometry">
            <mxPoint x="227.5" y="139.43000000000006" as="sourcePoint" />
            <mxPoint x="267.5" y="139.43000000000006" as="targetPoint" />
          </mxGeometry>
        </mxCell>
        <mxCell id="R_-WvSaThvEhrNufHfvD-70" value="" style="endArrow=classic;html=1;endFill=1;exitX=0.178;exitY=0.97;exitDx=0;exitDy=0;exitPerimeter=0;" parent="1" source="R_-WvSaThvEhrNufHfvD-112" edge="1">
          <mxGeometry width="50" height="50" relative="1" as="geometry">
            <mxPoint x="347.5" y="305" as="sourcePoint" />
            <mxPoint x="587.5" y="305" as="targetPoint" />
          </mxGeometry>
        </mxCell>
        <mxCell id="R_-WvSaThvEhrNufHfvD-71" value="" style="shape=waypoint;sketch=0;fillStyle=solid;size=6;pointerEvents=1;points=[];fillColor=#e51400;resizable=0;rotatable=0;perimeter=centerPerimeter;snapToPoint=1;strokeColor=#B20000;fontColor=#ffffff;" parent="1" vertex="1">
          <mxGeometry x="347.5" y="245" width="40" height="40" as="geometry" />
        </mxCell>
        <mxCell id="R_-WvSaThvEhrNufHfvD-72" value="" style="line;strokeWidth=1;direction=south;html=1;" parent="1" vertex="1">
          <mxGeometry x="362.5" y="300" width="10" height="10" as="geometry" />
        </mxCell>
        <mxCell id="R_-WvSaThvEhrNufHfvD-73" value="" style="line;strokeWidth=1;direction=south;html=1;" parent="1" vertex="1">
          <mxGeometry x="402.5" y="300" width="10" height="10" as="geometry" />
        </mxCell>
        <mxCell id="R_-WvSaThvEhrNufHfvD-74" value="" style="shape=waypoint;sketch=0;fillStyle=solid;size=6;pointerEvents=1;points=[];fillColor=#e51400;resizable=0;rotatable=0;perimeter=centerPerimeter;snapToPoint=1;strokeColor=#B20000;fontColor=#ffffff;" parent="1" vertex="1">
          <mxGeometry x="387.5" y="235" width="40" height="40" as="geometry" />
        </mxCell>
        <mxCell id="R_-WvSaThvEhrNufHfvD-75" value="" style="line;strokeWidth=1;direction=south;html=1;" parent="1" vertex="1">
          <mxGeometry x="442.5" y="300" width="10" height="10" as="geometry" />
        </mxCell>
        <mxCell id="R_-WvSaThvEhrNufHfvD-76" value="" style="shape=waypoint;sketch=0;fillStyle=solid;size=6;pointerEvents=1;points=[];fillColor=#e51400;resizable=0;rotatable=0;perimeter=centerPerimeter;snapToPoint=1;strokeColor=#B20000;fontColor=#ffffff;" parent="1" vertex="1">
          <mxGeometry x="427.5" y="255" width="40" height="40" as="geometry" />
        </mxCell>
        <mxCell id="R_-WvSaThvEhrNufHfvD-77" value="" style="shape=waypoint;sketch=0;fillStyle=solid;size=6;pointerEvents=1;points=[];fillColor=#e51400;resizable=0;rotatable=0;perimeter=centerPerimeter;snapToPoint=1;strokeColor=#B20000;fontColor=#ffffff;" parent="1" vertex="1">
          <mxGeometry x="467.5" y="225" width="40" height="40" as="geometry" />
        </mxCell>
        <mxCell id="R_-WvSaThvEhrNufHfvD-78" value="" style="shape=waypoint;sketch=0;fillStyle=solid;size=6;pointerEvents=1;points=[];fillColor=#e51400;resizable=0;rotatable=0;perimeter=centerPerimeter;snapToPoint=1;strokeColor=#B20000;fontColor=#ffffff;" parent="1" vertex="1">
          <mxGeometry x="507.5" y="245" width="40" height="40" as="geometry" />
        </mxCell>
        <mxCell id="R_-WvSaThvEhrNufHfvD-79" value="" style="line;strokeWidth=1;direction=south;html=1;" parent="1" vertex="1">
          <mxGeometry x="482.5" y="300" width="10" height="10" as="geometry" />
        </mxCell>
        <mxCell id="R_-WvSaThvEhrNufHfvD-80" value="" style="line;strokeWidth=1;direction=south;html=1;" parent="1" vertex="1">
          <mxGeometry x="522.5" y="300" width="10" height="10" as="geometry" />
        </mxCell>
        <mxCell id="R_-WvSaThvEhrNufHfvD-81" value="" style="line;strokeWidth=1;direction=south;html=1;" parent="1" vertex="1">
          <mxGeometry x="562.5" y="300" width="10" height="10" as="geometry" />
        </mxCell>
        <mxCell id="R_-WvSaThvEhrNufHfvD-82" value="" style="shape=waypoint;sketch=0;fillStyle=solid;size=6;pointerEvents=1;points=[];fillColor=#e51400;resizable=0;rotatable=0;perimeter=centerPerimeter;snapToPoint=1;strokeColor=#B20000;fontColor=#ffffff;" parent="1" vertex="1">
          <mxGeometry x="547.5" y="235" width="40" height="40" as="geometry" />
        </mxCell>
        <mxCell id="R_-WvSaThvEhrNufHfvD-84" value="" style="shape=waypoint;sketch=0;fillStyle=solid;size=6;pointerEvents=1;points=[];fillColor=#60a917;resizable=0;rotatable=0;perimeter=centerPerimeter;snapToPoint=1;strokeColor=#2D7600;fontColor=#ffffff;" parent="1" vertex="1">
          <mxGeometry x="347.5" y="185" width="40" height="40" as="geometry" />
        </mxCell>
        <mxCell id="R_-WvSaThvEhrNufHfvD-85" value="" style="shape=waypoint;sketch=0;fillStyle=solid;size=6;pointerEvents=1;points=[];fillColor=#60a917;resizable=0;rotatable=0;perimeter=centerPerimeter;snapToPoint=1;strokeColor=#2D7600;fontColor=#ffffff;" parent="1" vertex="1">
          <mxGeometry x="387.5" y="175" width="40" height="40" as="geometry" />
        </mxCell>
        <mxCell id="R_-WvSaThvEhrNufHfvD-86" value="" style="shape=waypoint;sketch=0;fillStyle=solid;size=6;pointerEvents=1;points=[];fillColor=#60a917;resizable=0;rotatable=0;perimeter=centerPerimeter;snapToPoint=1;strokeColor=#2D7600;fontColor=#ffffff;" parent="1" vertex="1">
          <mxGeometry x="427.5" y="195" width="40" height="40" as="geometry" />
        </mxCell>
        <mxCell id="R_-WvSaThvEhrNufHfvD-87" value="" style="shape=waypoint;sketch=0;fillStyle=solid;size=6;pointerEvents=1;points=[];fillColor=#60a917;resizable=0;rotatable=0;perimeter=centerPerimeter;snapToPoint=1;strokeColor=#2D7600;fontColor=#ffffff;" parent="1" vertex="1">
          <mxGeometry x="467.5" y="185" width="40" height="40" as="geometry" />
        </mxCell>
        <mxCell id="R_-WvSaThvEhrNufHfvD-88" value="" style="shape=waypoint;sketch=0;fillStyle=solid;size=6;pointerEvents=1;points=[];fillColor=#60a917;resizable=0;rotatable=0;perimeter=centerPerimeter;snapToPoint=1;strokeColor=#2D7600;fontColor=#ffffff;" parent="1" vertex="1">
          <mxGeometry x="507.5" y="165" width="40" height="40" as="geometry" />
        </mxCell>
        <mxCell id="R_-WvSaThvEhrNufHfvD-96" value="" style="shape=waypoint;sketch=0;fillStyle=solid;size=6;pointerEvents=1;points=[];fillColor=#1ba1e2;resizable=0;rotatable=0;perimeter=centerPerimeter;snapToPoint=1;strokeColor=#006EAF;fontColor=#ffffff;" parent="1" vertex="1">
          <mxGeometry x="347.5" y="140" width="40" height="40" as="geometry" />
        </mxCell>
        <mxCell id="R_-WvSaThvEhrNufHfvD-98" value="" style="shape=waypoint;sketch=0;fillStyle=solid;size=6;pointerEvents=1;points=[];fillColor=#1ba1e2;resizable=0;rotatable=0;perimeter=centerPerimeter;snapToPoint=1;strokeColor=#006EAF;fontColor=#ffffff;" parent="1" vertex="1">
          <mxGeometry x="427.5" y="140" width="40" height="40" as="geometry" />
        </mxCell>
        <mxCell id="R_-WvSaThvEhrNufHfvD-102" value="t&lt;sub style=&quot;font-size: 11px;&quot;&gt;0&lt;/sub&gt;" style="text;html=1;strokeColor=none;fillColor=none;align=center;verticalAlign=middle;whiteSpace=wrap;rounded=0;fontSize=11;" parent="1" vertex="1">
          <mxGeometry x="347.5" y="310" width="40" height="20" as="geometry" />
        </mxCell>
        <mxCell id="R_-WvSaThvEhrNufHfvD-103" value="t&lt;sub style=&quot;font-size: 11px;&quot;&gt;1&lt;/sub&gt;" style="text;html=1;strokeColor=none;fillColor=none;align=center;verticalAlign=middle;whiteSpace=wrap;rounded=0;fontSize=11;" parent="1" vertex="1">
          <mxGeometry x="387.5" y="310" width="40" height="20" as="geometry" />
        </mxCell>
        <mxCell id="R_-WvSaThvEhrNufHfvD-104" value="t&lt;sub style=&quot;font-size: 11px;&quot;&gt;2&lt;/sub&gt;" style="text;html=1;strokeColor=none;fillColor=none;align=center;verticalAlign=middle;whiteSpace=wrap;rounded=0;fontSize=11;" parent="1" vertex="1">
          <mxGeometry x="427.5" y="310" width="40" height="20" as="geometry" />
        </mxCell>
        <mxCell id="R_-WvSaThvEhrNufHfvD-105" value="t&lt;sub style=&quot;font-size: 11px;&quot;&gt;3&lt;/sub&gt;" style="text;html=1;strokeColor=none;fillColor=none;align=center;verticalAlign=middle;whiteSpace=wrap;rounded=0;fontSize=11;" parent="1" vertex="1">
          <mxGeometry x="467.5" y="310" width="40" height="20" as="geometry" />
        </mxCell>
        <mxCell id="R_-WvSaThvEhrNufHfvD-106" value="t&lt;sub style=&quot;font-size: 11px;&quot;&gt;4&lt;/sub&gt;" style="text;html=1;strokeColor=none;fillColor=none;align=center;verticalAlign=middle;whiteSpace=wrap;rounded=0;fontSize=11;" parent="1" vertex="1">
          <mxGeometry x="507.5" y="310" width="40" height="20" as="geometry" />
        </mxCell>
        <mxCell id="R_-WvSaThvEhrNufHfvD-107" value="t&lt;sub style=&quot;font-size: 11px;&quot;&gt;5&lt;/sub&gt;" style="text;html=1;strokeColor=none;fillColor=none;align=center;verticalAlign=middle;whiteSpace=wrap;rounded=0;fontSize=11;" parent="1" vertex="1">
          <mxGeometry x="547.5" y="310" width="40" height="20" as="geometry" />
        </mxCell>
        <mxCell id="R_-WvSaThvEhrNufHfvD-109" value="y&lt;sub&gt;t&lt;/sub&gt;" style="text;html=1;align=center;verticalAlign=middle;whiteSpace=wrap;rounded=0;fontColor=#004C99;fontStyle=1" parent="1" vertex="1">
          <mxGeometry x="317.5" y="150" width="40" height="20" as="geometry" />
        </mxCell>
        <mxCell id="R_-WvSaThvEhrNufHfvD-110" value="z&lt;sub&gt;t&lt;/sub&gt;" style="text;html=1;align=center;verticalAlign=middle;whiteSpace=wrap;rounded=0;fontColor=#336600;fontStyle=1" parent="1" vertex="1">
          <mxGeometry x="317.5" y="195" width="40" height="20" as="geometry" />
        </mxCell>
        <mxCell id="R_-WvSaThvEhrNufHfvD-111" value="x&lt;sub&gt;t&lt;/sub&gt;" style="text;html=1;align=center;verticalAlign=middle;whiteSpace=wrap;rounded=0;fontStyle=1;fontColor=#990000;" parent="1" vertex="1">
          <mxGeometry x="317.5" y="255" width="40" height="20" as="geometry" />
        </mxCell>
        <mxCell id="R_-WvSaThvEhrNufHfvD-112" value="time" style="text;html=1;strokeColor=none;fillColor=none;align=center;verticalAlign=middle;whiteSpace=wrap;rounded=0;" parent="1" vertex="1">
          <mxGeometry x="317.5" y="285" width="40" height="20" as="geometry" />
        </mxCell>
        <mxCell id="R_-WvSaThvEhrNufHfvD-119" value="" style="shape=waypoint;sketch=0;fillStyle=solid;size=6;pointerEvents=1;points=[];fillColor=#e51400;resizable=0;rotatable=0;perimeter=centerPerimeter;snapToPoint=1;strokeColor=#B20000;fontColor=#ffffff;" parent="1" vertex="1">
          <mxGeometry x="247.5" y="245" width="40" height="40" as="geometry" />
        </mxCell>
        <mxCell id="R_-WvSaThvEhrNufHfvD-120" value="" style="endArrow=none;dashed=1;html=1;fontColor=#000000;exitX=0.582;exitY=0.503;exitDx=0;exitDy=0;exitPerimeter=0;fillColor=#1ba1e2;strokeColor=#006EAF;" parent="1" edge="1">
          <mxGeometry width="50" height="50" relative="1" as="geometry">
            <mxPoint x="487.5" y="150" as="sourcePoint" />
            <mxPoint x="487.5" y="150" as="targetPoint" />
          </mxGeometry>
        </mxCell>
        <mxCell id="R_-WvSaThvEhrNufHfvD-129" value="" style="curved=1;endArrow=none;html=1;fontColor=#000000;endFill=0;fillColor=#60a917;strokeColor=#2D7600;" parent="1" edge="1">
          <mxGeometry width="50" height="50" relative="1" as="geometry">
            <mxPoint x="367.5" y="205" as="sourcePoint" />
            <mxPoint x="407.5" y="185" as="targetPoint" />
            <Array as="points">
              <mxPoint x="377.5" y="205" />
              <mxPoint x="387.5" y="195" />
              <mxPoint x="397.5" y="185" />
            </Array>
          </mxGeometry>
        </mxCell>
        <mxCell id="R_-WvSaThvEhrNufHfvD-131" value="" style="curved=1;endArrow=none;html=1;fontColor=#000000;endFill=0;fillColor=#60a917;strokeColor=#2D7600;" parent="1" edge="1">
          <mxGeometry width="50" height="50" relative="1" as="geometry">
            <mxPoint x="447.5" y="215" as="sourcePoint" />
            <mxPoint x="487.5" y="195" as="targetPoint" />
            <Array as="points">
              <mxPoint x="452.5" y="205" />
              <mxPoint x="467.5" y="205" />
              <mxPoint x="477.5" y="195" />
            </Array>
          </mxGeometry>
        </mxCell>
        <mxCell id="R_-WvSaThvEhrNufHfvD-134" value="" style="curved=1;endArrow=none;html=1;fontColor=#000000;endFill=0;fillColor=#60a917;strokeColor=#2D7600;" parent="1" edge="1">
          <mxGeometry width="50" height="50" relative="1" as="geometry">
            <mxPoint x="527.5" y="185" as="sourcePoint" />
            <mxPoint x="567.5" y="195" as="targetPoint" />
            <Array as="points">
              <mxPoint x="537.5" y="175" />
              <mxPoint x="547.5" y="185" />
              <mxPoint x="557.5" y="195" />
            </Array>
          </mxGeometry>
        </mxCell>
        <mxCell id="R_-WvSaThvEhrNufHfvD-136" value="" style="curved=1;endArrow=none;html=1;fontColor=#000000;endFill=0;exitX=0.549;exitY=0.511;exitDx=0;exitDy=0;exitPerimeter=0;fillColor=#60a917;strokeColor=#2D7600;" parent="1" edge="1">
          <mxGeometry width="50" height="50" relative="1" as="geometry">
            <mxPoint x="407.5" y="195" as="sourcePoint" />
            <mxPoint x="447.5" y="205" as="targetPoint" />
            <Array as="points">
              <mxPoint x="417.5" y="185" />
              <mxPoint x="432.5" y="195" />
              <mxPoint x="442.5" y="205" />
            </Array>
          </mxGeometry>
        </mxCell>
        <mxCell id="R_-WvSaThvEhrNufHfvD-137" value="" style="curved=1;endArrow=none;html=1;fontColor=#000000;endFill=0;exitX=0.549;exitY=0.511;exitDx=0;exitDy=0;exitPerimeter=0;fillColor=#60a917;strokeColor=#2D7600;" parent="1" edge="1">
          <mxGeometry width="50" height="50" relative="1" as="geometry">
            <mxPoint x="487.5" y="205" as="sourcePoint" />
            <mxPoint x="527.5" y="195" as="targetPoint" />
            <Array as="points">
              <mxPoint x="497.5" y="195" />
              <mxPoint x="517.5" y="205" />
            </Array>
          </mxGeometry>
        </mxCell>
        <mxCell id="R_-WvSaThvEhrNufHfvD-140" value="" style="curved=1;endArrow=none;html=1;fontColor=#000000;endFill=0;fillColor=#1ba1e2;strokeColor=#006EAF;" parent="1" edge="1">
          <mxGeometry width="50" height="50" relative="1" as="geometry">
            <mxPoint x="367.5" y="160" as="sourcePoint" />
            <mxPoint x="407.5" y="145" as="targetPoint" />
            <Array as="points">
              <mxPoint x="377.5" y="160" />
              <mxPoint x="387.5" y="145" />
            </Array>
          </mxGeometry>
        </mxCell>
        <mxCell id="R_-WvSaThvEhrNufHfvD-142" value="" style="curved=1;endArrow=none;html=1;fontColor=#000000;endFill=0;exitDx=0;exitDy=0;exitPerimeter=0;fillColor=#1ba1e2;strokeColor=#006EAF;startArrow=none;" parent="1" source="R_-WvSaThvEhrNufHfvD-97" edge="1">
          <mxGeometry width="50" height="50" relative="1" as="geometry">
            <mxPoint x="407.5" y="140" as="sourcePoint" />
            <mxPoint x="447.5" y="150" as="targetPoint" />
            <Array as="points">
              <mxPoint x="417.5" y="135" />
              <mxPoint x="432.5" y="140" />
              <mxPoint x="442.5" y="150" />
            </Array>
          </mxGeometry>
        </mxCell>
        <mxCell id="R_-WvSaThvEhrNufHfvD-143" value="" style="curved=1;endArrow=none;html=1;fontColor=#000000;endFill=0;fillColor=#1ba1e2;strokeColor=#006EAF;" parent="1" edge="1">
          <mxGeometry width="50" height="50" relative="1" as="geometry">
            <mxPoint x="447.5" y="160" as="sourcePoint" />
            <mxPoint x="487.5" y="140" as="targetPoint" />
            <Array as="points">
              <mxPoint x="452.5" y="150" />
              <mxPoint x="467.5" y="150" />
              <mxPoint x="477.5" y="140" />
            </Array>
          </mxGeometry>
        </mxCell>
        <mxCell id="R_-WvSaThvEhrNufHfvD-144" value="" style="curved=1;endArrow=none;html=1;fontColor=#000000;endFill=0;exitX=0.549;exitY=0.511;exitDx=0;exitDy=0;exitPerimeter=0;fillColor=#1ba1e2;strokeColor=#006EAF;" parent="1" edge="1">
          <mxGeometry width="50" height="50" relative="1" as="geometry">
            <mxPoint x="487.5" y="150" as="sourcePoint" />
            <mxPoint x="527.5" y="150" as="targetPoint" />
            <Array as="points">
              <mxPoint x="497.5" y="140" />
              <mxPoint x="517.5" y="150" />
            </Array>
          </mxGeometry>
        </mxCell>
        <mxCell id="R_-WvSaThvEhrNufHfvD-145" value="" style="curved=1;endArrow=none;html=1;fontColor=#000000;endFill=0;fillColor=#1ba1e2;strokeColor=#006EAF;" parent="1" edge="1">
          <mxGeometry width="50" height="50" relative="1" as="geometry">
            <mxPoint x="527.5" y="140" as="sourcePoint" />
            <mxPoint x="567.5" y="150" as="targetPoint" />
            <Array as="points">
              <mxPoint x="537.5" y="135" />
              <mxPoint x="547.5" y="140" />
              <mxPoint x="557.5" y="150" />
            </Array>
          </mxGeometry>
        </mxCell>
        <mxCell id="R_-WvSaThvEhrNufHfvD-97" value="" style="shape=waypoint;sketch=0;fillStyle=solid;size=6;pointerEvents=1;points=[];fillColor=#1ba1e2;resizable=0;rotatable=0;perimeter=centerPerimeter;snapToPoint=1;strokeColor=#006EAF;fontColor=#ffffff;" parent="1" vertex="1">
          <mxGeometry x="387.5" y="120" width="40" height="40" as="geometry" />
        </mxCell>
        <mxCell id="R_-WvSaThvEhrNufHfvD-146" value="" style="curved=1;endArrow=none;html=1;fontColor=#000000;endFill=0;exitX=0.549;exitY=0.511;exitDx=0;exitDy=0;exitPerimeter=0;fillColor=#1ba1e2;strokeColor=#006EAF;" parent="1" target="R_-WvSaThvEhrNufHfvD-97" edge="1">
          <mxGeometry width="50" height="50" relative="1" as="geometry">
            <mxPoint x="407.5" y="140" as="sourcePoint" />
            <mxPoint x="447.5" y="150" as="targetPoint" />
            <Array as="points" />
          </mxGeometry>
        </mxCell>
        <mxCell id="R_-WvSaThvEhrNufHfvD-148" value="" style="shape=waypoint;sketch=0;fillStyle=solid;size=6;pointerEvents=1;points=[];fillColor=#1ba1e2;resizable=0;rotatable=0;perimeter=centerPerimeter;snapToPoint=1;strokeColor=#006EAF;fontColor=#ffffff;" parent="1" vertex="1">
          <mxGeometry x="467.5" y="130" width="40" height="40" as="geometry" />
        </mxCell>
        <mxCell id="R_-WvSaThvEhrNufHfvD-149" value="" style="shape=waypoint;sketch=0;fillStyle=solid;size=6;pointerEvents=1;points=[];fillColor=#1ba1e2;resizable=0;rotatable=0;perimeter=centerPerimeter;snapToPoint=1;strokeColor=#006EAF;fontColor=#ffffff;" parent="1" vertex="1">
          <mxGeometry x="507.5" y="120" width="40" height="40" as="geometry" />
        </mxCell>
        <mxCell id="R_-WvSaThvEhrNufHfvD-151" value="" style="endArrow=blockThin;html=1;fontColor=#000000;fillColor=#f5f5f5;strokeColor=#666666;gradientColor=#b3b3b3;opacity=60;endFill=1;exitX=-0.003;exitY=0.539;exitDx=0;exitDy=0;exitPerimeter=0;" parent="1" edge="1" source="R_-WvSaThvEhrNufHfvD-152">
          <mxGeometry width="50" height="50" relative="1" as="geometry">
            <mxPoint x="577.5" y="165" as="sourcePoint" />
            <mxPoint x="547.5" y="185" as="targetPoint" />
            <Array as="points" />
          </mxGeometry>
        </mxCell>
        <mxCell id="R_-WvSaThvEhrNufHfvD-152" value="dz/dt=NN(z&lt;sub&gt;t&lt;/sub&gt;)" style="text;html=1;strokeColor=none;fillColor=none;align=center;verticalAlign=middle;whiteSpace=wrap;rounded=0;dashed=1;fontColor=#000000;fontSize=10;" parent="1" vertex="1">
          <mxGeometry x="580" y="165" width="70" height="20" as="geometry" />
        </mxCell>
        <mxCell id="R_-WvSaThvEhrNufHfvD-153" value="" style="endArrow=none;dashed=1;html=1;dashPattern=1 1;strokeWidth=2;fontColor=#000000;opacity=60;fillColor=#60a917;strokeColor=#2D7600;" parent="1" target="R_-WvSaThvEhrNufHfvD-85" edge="1">
          <mxGeometry width="50" height="50" relative="1" as="geometry">
            <mxPoint x="407.5" y="185" as="sourcePoint" />
            <mxPoint x="487.5" y="145" as="targetPoint" />
          </mxGeometry>
        </mxCell>
        <mxCell id="R_-WvSaThvEhrNufHfvD-155" value="" style="endArrow=none;dashed=1;html=1;dashPattern=1 1;strokeWidth=2;fontColor=#000000;opacity=60;fillColor=#60a917;strokeColor=#2D7600;" parent="1" edge="1">
          <mxGeometry width="50" height="50" relative="1" as="geometry">
            <mxPoint x="447.41999999999996" y="205" as="sourcePoint" />
            <mxPoint x="447.41999999999996" y="215" as="targetPoint" />
          </mxGeometry>
        </mxCell>
        <mxCell id="R_-WvSaThvEhrNufHfvD-156" value="" style="endArrow=none;dashed=1;html=1;dashPattern=1 1;strokeWidth=2;fontColor=#000000;opacity=60;fillColor=#60a917;strokeColor=#2D7600;" parent="1" edge="1">
          <mxGeometry width="50" height="50" relative="1" as="geometry">
            <mxPoint x="487.41999999999996" y="195" as="sourcePoint" />
            <mxPoint x="487.41999999999996" y="205" as="targetPoint" />
          </mxGeometry>
        </mxCell>
        <mxCell id="R_-WvSaThvEhrNufHfvD-157" value="" style="endArrow=none;dashed=1;html=1;dashPattern=1 1;strokeWidth=2;fontColor=#000000;opacity=60;fillColor=#60a917;strokeColor=#2D7600;" parent="1" edge="1">
          <mxGeometry width="50" height="50" relative="1" as="geometry">
            <mxPoint x="527.42" y="185" as="sourcePoint" />
            <mxPoint x="527.42" y="195" as="targetPoint" />
          </mxGeometry>
        </mxCell>
        <mxCell id="R_-WvSaThvEhrNufHfvD-159" value="z&lt;sub&gt;t1-&lt;/sub&gt;-z&lt;sub&gt;t1&lt;/sub&gt;=RNN(x&lt;sub&gt;t1&lt;/sub&gt;)" style="text;html=1;strokeColor=none;fillColor=none;align=center;verticalAlign=middle;whiteSpace=wrap;rounded=0;dashed=1;fontColor=#000000;fontSize=10;" parent="1" vertex="1">
          <mxGeometry x="427.5" y="165" width="70" height="20" as="geometry" />
        </mxCell>
        <mxCell id="R_-WvSaThvEhrNufHfvD-161" value="" style="endArrow=none;html=1;fontColor=#000000;fillColor=#647687;strokeColor=#314354;opacity=60;strokeWidth=1;endFill=0;exitX=0.25;exitY=1;exitDx=0;exitDy=0;entryX=0.1;entryY=0.5;entryDx=0;entryDy=0;entryPerimeter=0;" parent="1" source="R_-WvSaThvEhrNufHfvD-162" target="R_-WvSaThvEhrNufHfvD-169" edge="1">
          <mxGeometry width="50" height="50" relative="1" as="geometry">
            <mxPoint x="187.4999999999999" y="170" as="sourcePoint" />
            <mxPoint x="147.5" y="205" as="targetPoint" />
            <Array as="points">
              <mxPoint x="157.5" y="200" />
            </Array>
          </mxGeometry>
        </mxCell>
        <mxCell id="R_-WvSaThvEhrNufHfvD-162" value="&lt;div&gt;z&lt;sub&gt;t2&lt;/sub&gt;-z&lt;sub&gt;t1&lt;/sub&gt;=RNN(x&lt;sub&gt;t1&lt;/sub&gt;)&lt;/div&gt;" style="text;html=1;strokeColor=none;fillColor=none;align=center;verticalAlign=middle;whiteSpace=wrap;rounded=0;dashed=1;fontColor=#000000;fontSize=10;" parent="1" vertex="1">
          <mxGeometry x="162.5" y="165" width="85" height="20" as="geometry" />
        </mxCell>
        <mxCell id="R_-WvSaThvEhrNufHfvD-163" value="z&lt;sub style=&quot;font-size: 8px;&quot;&gt;t1-&lt;/sub&gt;" style="text;html=1;strokeColor=none;fillColor=none;align=center;verticalAlign=middle;whiteSpace=wrap;rounded=0;dashed=1;fontSize=8;fontColor=#000000;" parent="1" vertex="1">
          <mxGeometry x="387.5" y="155" width="10" height="15" as="geometry" />
        </mxCell>
        <mxCell id="R_-WvSaThvEhrNufHfvD-164" value="z&lt;sub style=&quot;font-size: 8px;&quot;&gt;t1&lt;/sub&gt;" style="text;html=1;strokeColor=none;fillColor=none;align=center;verticalAlign=middle;whiteSpace=wrap;rounded=0;dashed=1;fontSize=8;fontColor=#000000;" parent="1" vertex="1">
          <mxGeometry x="387.5" y="225" width="10" height="10" as="geometry" />
        </mxCell>
        <mxCell id="R_-WvSaThvEhrNufHfvD-166" value="" style="endArrow=classic;html=1;fontSize=8;fontColor=#000000;strokeWidth=1;opacity=60;exitX=0.75;exitY=1;exitDx=0;exitDy=0;" parent="1" source="R_-WvSaThvEhrNufHfvD-163" edge="1">
          <mxGeometry width="50" height="50" relative="1" as="geometry">
            <mxPoint x="397.5" y="175" as="sourcePoint" />
            <mxPoint x="407.5" y="185" as="targetPoint" />
          </mxGeometry>
        </mxCell>
        <mxCell id="R_-WvSaThvEhrNufHfvD-167" value="" style="endArrow=classic;html=1;fontSize=8;fontColor=#000000;strokeWidth=1;opacity=60;exitX=0.75;exitY=0;exitDx=0;exitDy=0;" parent="1" source="R_-WvSaThvEhrNufHfvD-164" edge="1">
          <mxGeometry width="50" height="50" relative="1" as="geometry">
            <mxPoint x="367.5" y="205" as="sourcePoint" />
            <mxPoint x="407.5" y="195" as="targetPoint" />
          </mxGeometry>
        </mxCell>
        <mxCell id="R_-WvSaThvEhrNufHfvD-169" value="" style="shape=curlyBracket;whiteSpace=wrap;html=1;rounded=1;fontSize=8;fontColor=#333333;strokeWidth=1;rotation=-180;fillColor=#f5f5f5;strokeColor=#666666;size=0;opacity=60;" parent="1" vertex="1">
          <mxGeometry x="107.5" y="195" width="5" height="10" as="geometry" />
        </mxCell>
        <mxCell id="RxjEodVqocuGxgpkdKOe-3" value="" style="rounded=0;whiteSpace=wrap;html=1;perimeterSpacing=1;fillColor=none;dashed=1;strokeColor=#999999;" parent="1" vertex="1">
          <mxGeometry x="527.5" y="175" width="40" height="20" as="geometry" />
        </mxCell>
        <mxCell id="RxjEodVqocuGxgpkdKOe-4" value="Panel C/D" style="text;html=1;strokeColor=none;fillColor=none;align=center;verticalAlign=middle;whiteSpace=wrap;rounded=0;dashed=1;fontSize=9;" parent="1" vertex="1">
          <mxGeometry x="527.5" y="165" width="42.5" height="10" as="geometry" />
        </mxCell>
        <mxCell id="RxjEodVqocuGxgpkdKOe-31" value="(A)" style="text;html=1;strokeColor=none;fillColor=none;align=center;verticalAlign=middle;whiteSpace=wrap;rounded=0;dashed=1;fontSize=12;opacity=90;fontStyle=1" parent="1" vertex="1">
          <mxGeometry x="22.5" y="100" width="27.5" height="20" as="geometry" />
        </mxCell>
        <mxCell id="RxjEodVqocuGxgpkdKOe-32" value="(B)" style="text;html=1;strokeColor=none;fillColor=none;align=center;verticalAlign=middle;whiteSpace=wrap;rounded=0;dashed=1;fontSize=12;opacity=90;fontStyle=1" parent="1" vertex="1">
          <mxGeometry x="307.5" y="100" width="30.5" height="20" as="geometry" />
        </mxCell>
        <mxCell id="vnLwDHoqT5jpjLEuEO11-1" style="edgeStyle=orthogonalEdgeStyle;rounded=0;orthogonalLoop=1;jettySize=auto;html=1;exitX=0.5;exitY=1;exitDx=0;exitDy=0;" parent="1" source="R_-WvSaThvEhrNufHfvD-58" target="R_-WvSaThvEhrNufHfvD-58" edge="1">
          <mxGeometry relative="1" as="geometry" />
        </mxCell>
        <mxCell id="1hqNCw-lQecjgoDk5Riq-6" value="" style="ellipse;whiteSpace=wrap;html=1;aspect=fixed;strokeColor=#0066CC;" vertex="1" parent="1">
          <mxGeometry x="524.5" y="147" width="6" height="6" as="geometry" />
        </mxCell>
        <mxCell id="1hqNCw-lQecjgoDk5Riq-8" value="time" style="text;html=1;strokeColor=none;fillColor=none;align=center;verticalAlign=middle;whiteSpace=wrap;rounded=0;" vertex="1" parent="1">
          <mxGeometry x="17.5" y="285" width="40" height="20" as="geometry" />
        </mxCell>
        <mxCell id="1hqNCw-lQecjgoDk5Riq-108" value="(C)" style="text;html=1;strokeColor=none;fillColor=none;align=center;verticalAlign=middle;whiteSpace=wrap;rounded=0;dashed=1;fontSize=12;opacity=90;fontStyle=1" vertex="1" parent="1">
          <mxGeometry x="27.5" y="340" width="20" height="40" as="geometry" />
        </mxCell>
        <mxCell id="1hqNCw-lQecjgoDk5Riq-114" value="" style="group" vertex="1" connectable="0" parent="1">
          <mxGeometry x="307.5" y="353" width="280" height="227" as="geometry" />
        </mxCell>
        <mxCell id="RxjEodVqocuGxgpkdKOe-25" value="" style="endArrow=none;html=1;fontSize=8;fontColor=#000000;strokeWidth=1;fillColor=#60a917;strokeColor=#2D7600;" parent="1hqNCw-lQecjgoDk5Riq-114" edge="1">
          <mxGeometry width="50" height="50" as="geometry">
            <mxPoint x="80" y="73" as="sourcePoint" />
            <mxPoint x="100" y="62" as="targetPoint" />
          </mxGeometry>
        </mxCell>
        <mxCell id="RxjEodVqocuGxgpkdKOe-24" value="" style="endArrow=none;html=1;fontSize=8;fontColor=#000000;strokeWidth=1;fillColor=#60a917;strokeColor=#2D7600;" parent="1hqNCw-lQecjgoDk5Riq-114" edge="1">
          <mxGeometry width="50" height="50" as="geometry">
            <mxPoint x="60" y="93" as="sourcePoint" />
            <mxPoint x="80" y="73" as="targetPoint" />
          </mxGeometry>
        </mxCell>
        <mxCell id="R_-WvSaThvEhrNufHfvD-218" value="" style="curved=1;endArrow=none;html=1;fontSize=8;fontColor=#000000;strokeWidth=1;opacity=20;endFill=0;fillColor=#d80073;strokeColor=#A50040;" parent="1hqNCw-lQecjgoDk5Riq-114" edge="1">
          <mxGeometry width="50" height="50" as="geometry">
            <mxPoint x="60" y="93" as="sourcePoint" />
            <mxPoint x="260" y="133" as="targetPoint" />
            <Array as="points">
              <mxPoint x="90" y="53" />
              <mxPoint x="140" y="83" />
              <mxPoint x="190" y="133" />
            </Array>
          </mxGeometry>
        </mxCell>
        <mxCell id="R_-WvSaThvEhrNufHfvD-186" value="" style="shape=waypoint;sketch=0;fillStyle=solid;size=6;pointerEvents=1;points=[];fillColor=#60a917;resizable=0;rotatable=0;perimeter=centerPerimeter;snapToPoint=1;fontSize=8;fontColor=#ffffff;strokeWidth=1;strokeColor=#2D7600;" parent="1hqNCw-lQecjgoDk5Riq-114" vertex="1">
          <mxGeometry x="40" y="6.5" width="40" height="40" as="geometry" />
        </mxCell>
        <mxCell id="R_-WvSaThvEhrNufHfvD-189" value="" style="shape=waypoint;sketch=0;fillStyle=solid;size=6;pointerEvents=1;points=[];fillColor=#60a917;resizable=0;rotatable=0;perimeter=centerPerimeter;snapToPoint=1;fontSize=8;fontColor=#ffffff;strokeWidth=1;strokeColor=#2D7600;" parent="1hqNCw-lQecjgoDk5Riq-114" vertex="1">
          <mxGeometry x="60" y="30" width="40" height="40" as="geometry" />
        </mxCell>
        <mxCell id="R_-WvSaThvEhrNufHfvD-174" value="" style="curved=1;endArrow=none;html=1;fontSize=8;fontColor=#000000;strokeWidth=1;opacity=20;endFill=0;fillColor=#d80073;strokeColor=#A50040;textOpacity=50;" parent="1hqNCw-lQecjgoDk5Riq-114" edge="1">
          <mxGeometry width="50" height="50" as="geometry">
            <mxPoint x="60" y="50" as="sourcePoint" />
            <mxPoint x="260" y="90" as="targetPoint" />
            <Array as="points">
              <mxPoint x="90" y="10" />
              <mxPoint x="140" y="40" />
              <mxPoint x="190" y="90" />
            </Array>
          </mxGeometry>
        </mxCell>
        <mxCell id="R_-WvSaThvEhrNufHfvD-175" value="" style="line;strokeWidth=1;direction=south;html=1;" parent="1hqNCw-lQecjgoDk5Riq-114" vertex="1">
          <mxGeometry x="55" y="196.5" width="10" height="10" as="geometry" />
        </mxCell>
        <mxCell id="R_-WvSaThvEhrNufHfvD-183" value="" style="curved=1;endArrow=none;html=1;fontSize=8;fontColor=#000000;strokeWidth=1;opacity=20;endFill=0;fillColor=#d80073;strokeColor=#A50040;" parent="1hqNCw-lQecjgoDk5Riq-114" edge="1">
          <mxGeometry width="50" height="50" as="geometry">
            <mxPoint x="60" y="70" as="sourcePoint" />
            <mxPoint x="260" y="110" as="targetPoint" />
            <Array as="points">
              <mxPoint x="90" y="30" />
              <mxPoint x="140" y="60" />
              <mxPoint x="190" y="110" />
            </Array>
          </mxGeometry>
        </mxCell>
        <mxCell id="R_-WvSaThvEhrNufHfvD-190" value="" style="curved=1;endArrow=none;html=1;fontSize=8;fontColor=#000000;strokeWidth=1;opacity=20;endFill=0;fillColor=#d80073;strokeColor=#A50040;" parent="1hqNCw-lQecjgoDk5Riq-114" edge="1">
          <mxGeometry y="-23.5" width="50" height="50" as="geometry">
            <mxPoint x="60" y="130.5" as="sourcePoint" />
            <mxPoint x="260" y="171.5" as="targetPoint" />
            <Array as="points">
              <mxPoint x="90" y="91.5" />
              <mxPoint x="140" y="121.5" />
              <mxPoint x="190" y="171.5" />
            </Array>
          </mxGeometry>
        </mxCell>
        <mxCell id="R_-WvSaThvEhrNufHfvD-194" value="" style="curved=1;endArrow=none;html=1;fontSize=8;fontColor=#000000;strokeWidth=1;opacity=60;endFill=0;fillColor=#d80073;strokeColor=#A50040;entryX=0.47;entryY=0.529;entryDx=0;entryDy=0;entryPerimeter=0;exitX=0.007;exitY=1.017;exitDx=0;exitDy=0;exitPerimeter=0;" parent="1hqNCw-lQecjgoDk5Riq-114" source="R_-WvSaThvEhrNufHfvD-189" target="R_-WvSaThvEhrNufHfvD-189" edge="1">
          <mxGeometry width="50" height="50" as="geometry">
            <mxPoint x="60" y="80" as="sourcePoint" />
            <mxPoint x="70" y="90" as="targetPoint" />
            <Array as="points" />
          </mxGeometry>
        </mxCell>
        <mxCell id="R_-WvSaThvEhrNufHfvD-196" value="z(t&lt;sub&gt;4&lt;/sub&gt;)" style="text;html=1;strokeColor=none;fillColor=none;align=center;verticalAlign=middle;whiteSpace=wrap;rounded=0;fontSize=8;fontColor=#000000;" parent="1hqNCw-lQecjgoDk5Riq-114" vertex="1">
          <mxGeometry x="28" y="16.5" width="40" height="20" as="geometry" />
        </mxCell>
        <mxCell id="R_-WvSaThvEhrNufHfvD-199" value="" style="endArrow=none;html=1;fontSize=8;fontColor=#000000;strokeWidth=1;opacity=60;" parent="1hqNCw-lQecjgoDk5Riq-114" edge="1">
          <mxGeometry y="-23.5" width="50" height="50" as="geometry">
            <mxPoint x="260" y="206.5" as="sourcePoint" />
            <mxPoint x="260" y="196.5" as="targetPoint" />
          </mxGeometry>
        </mxCell>
        <mxCell id="R_-WvSaThvEhrNufHfvD-200" value="" style="line;strokeWidth=1;direction=south;html=1;" parent="1hqNCw-lQecjgoDk5Riq-114" vertex="1">
          <mxGeometry x="75" y="196.5" width="10" height="10" as="geometry" />
        </mxCell>
        <mxCell id="R_-WvSaThvEhrNufHfvD-208" value="" style="line;strokeWidth=1;direction=south;html=1;" parent="1hqNCw-lQecjgoDk5Riq-114" vertex="1">
          <mxGeometry x="90" y="196.5" width="20" height="10" as="geometry" />
        </mxCell>
        <mxCell id="R_-WvSaThvEhrNufHfvD-210" value="" style="line;strokeWidth=1;direction=south;html=1;" parent="1hqNCw-lQecjgoDk5Riq-114" vertex="1">
          <mxGeometry x="110" y="196.5" width="20" height="10" as="geometry" />
        </mxCell>
        <mxCell id="R_-WvSaThvEhrNufHfvD-211" value="" style="line;strokeWidth=1;direction=south;html=1;" parent="1hqNCw-lQecjgoDk5Riq-114" vertex="1">
          <mxGeometry x="130" y="196.5" width="20" height="10" as="geometry" />
        </mxCell>
        <mxCell id="R_-WvSaThvEhrNufHfvD-212" value="" style="line;strokeWidth=1;direction=south;html=1;" parent="1hqNCw-lQecjgoDk5Riq-114" vertex="1">
          <mxGeometry x="150" y="196.5" width="20" height="10" as="geometry" />
        </mxCell>
        <mxCell id="R_-WvSaThvEhrNufHfvD-213" value="" style="line;strokeWidth=1;direction=south;html=1;" parent="1hqNCw-lQecjgoDk5Riq-114" vertex="1">
          <mxGeometry x="170" y="196.5" width="20" height="10" as="geometry" />
        </mxCell>
        <mxCell id="R_-WvSaThvEhrNufHfvD-214" value="" style="line;strokeWidth=1;direction=south;html=1;" parent="1hqNCw-lQecjgoDk5Riq-114" vertex="1">
          <mxGeometry x="190" y="196.5" width="20" height="10" as="geometry" />
        </mxCell>
        <mxCell id="R_-WvSaThvEhrNufHfvD-215" value="" style="line;strokeWidth=1;direction=south;html=1;" parent="1hqNCw-lQecjgoDk5Riq-114" vertex="1">
          <mxGeometry x="210" y="196.5" width="20" height="10" as="geometry" />
        </mxCell>
        <mxCell id="R_-WvSaThvEhrNufHfvD-216" value="" style="line;strokeWidth=1;direction=south;html=1;" parent="1hqNCw-lQecjgoDk5Riq-114" vertex="1">
          <mxGeometry x="230" y="196.5" width="20" height="10" as="geometry" />
        </mxCell>
        <mxCell id="R_-WvSaThvEhrNufHfvD-217" value="" style="endArrow=none;html=1;fontSize=8;fontColor=#000000;strokeWidth=1;fillColor=#60a917;strokeColor=#2D7600;" parent="1hqNCw-lQecjgoDk5Riq-114" edge="1">
          <mxGeometry width="50" height="50" as="geometry">
            <mxPoint x="60" y="70" as="sourcePoint" />
            <mxPoint x="80" y="50" as="targetPoint" />
          </mxGeometry>
        </mxCell>
        <mxCell id="R_-WvSaThvEhrNufHfvD-307" value="" style="shape=waypoint;sketch=0;fillStyle=solid;size=6;pointerEvents=1;points=[];fillColor=#60a917;resizable=0;rotatable=0;perimeter=centerPerimeter;snapToPoint=1;fontSize=8;fontColor=#ffffff;strokeWidth=1;strokeColor=#2D7600;" parent="1hqNCw-lQecjgoDk5Riq-114" vertex="1">
          <mxGeometry x="240" y="171.5" width="40" height="40" as="geometry" />
        </mxCell>
        <mxCell id="R_-WvSaThvEhrNufHfvD-308" value="" style="shape=curlyBracket;whiteSpace=wrap;html=1;rounded=1;fontSize=8;fontColor=#000000;strokeWidth=1;opacity=60;rotation=-90;" parent="1hqNCw-lQecjgoDk5Riq-114" vertex="1">
          <mxGeometry x="147" y="198.5" width="6" height="20" as="geometry" />
        </mxCell>
        <mxCell id="R_-WvSaThvEhrNufHfvD-309" value="&lt;span style=&quot;font-size: 10px;&quot;&gt;Δ&lt;sub style=&quot;font-size: 10px;&quot;&gt;t&lt;/sub&gt;&lt;/span&gt;" style="text;html=1;strokeColor=none;fillColor=none;align=center;verticalAlign=middle;whiteSpace=wrap;rounded=0;fontSize=10;fontColor=#000000;opacity=60;" parent="1hqNCw-lQecjgoDk5Riq-114" vertex="1">
          <mxGeometry x="141" y="209.5" width="20" height="15" as="geometry" />
        </mxCell>
        <mxCell id="R_-WvSaThvEhrNufHfvD-310" value="z(t&lt;sub&gt;4&lt;/sub&gt;+&lt;span&gt;Δt)&lt;/span&gt;&lt;span&gt;=z(t&lt;sub&gt;4&lt;/sub&gt;&lt;/span&gt;)+&lt;span&gt;&lt;sub&gt;&lt;/sub&gt;ODENet(z&lt;sub&gt;t4&lt;/sub&gt;)&lt;/span&gt;&lt;span class=&quot;ILfuVd&quot;&gt;&lt;span class=&quot;hgKElc&quot;&gt;&lt;b&gt;⋅&lt;/b&gt;&lt;/span&gt;&lt;/span&gt;&lt;span&gt;&lt;span&gt;Δ&lt;sub&gt;t&lt;/sub&gt;&lt;/span&gt;&lt;/span&gt;" style="text;html=1;strokeColor=none;fillColor=none;align=center;verticalAlign=middle;whiteSpace=wrap;rounded=0;fontSize=8;fontColor=#000000;opacity=60;" parent="1hqNCw-lQecjgoDk5Riq-114" vertex="1">
          <mxGeometry x="135" y="20" width="105" height="20" as="geometry" />
        </mxCell>
        <mxCell id="R_-WvSaThvEhrNufHfvD-313" value="t&lt;sub style=&quot;font-size: 10px;&quot;&gt;4&lt;/sub&gt;" style="text;html=1;strokeColor=none;fillColor=none;align=center;verticalAlign=middle;whiteSpace=wrap;rounded=0;fontSize=10;fontColor=#000000;opacity=60;" parent="1hqNCw-lQecjgoDk5Riq-114" vertex="1">
          <mxGeometry x="40" y="206.5" width="40" height="20" as="geometry" />
        </mxCell>
        <mxCell id="R_-WvSaThvEhrNufHfvD-315" value="t&lt;sub style=&quot;font-size: 10px;&quot;&gt;4&lt;/sub&gt;+&lt;span style=&quot;font-size: 10px;&quot;&gt;Δt&lt;/span&gt;" style="text;html=1;strokeColor=none;fillColor=none;align=center;verticalAlign=middle;whiteSpace=wrap;rounded=0;fontSize=10;fontColor=#000000;opacity=60;" parent="1hqNCw-lQecjgoDk5Riq-114" vertex="1">
          <mxGeometry x="70" y="206.5" width="21" height="20" as="geometry" />
        </mxCell>
        <mxCell id="R_-WvSaThvEhrNufHfvD-316" value="t&lt;sub style=&quot;font-size: 10px;&quot;&gt;5&lt;/sub&gt;" style="text;html=1;strokeColor=none;fillColor=none;align=center;verticalAlign=middle;whiteSpace=wrap;rounded=0;fontSize=10;fontColor=#000000;opacity=60;" parent="1hqNCw-lQecjgoDk5Riq-114" vertex="1">
          <mxGeometry x="240" y="207" width="40" height="20" as="geometry" />
        </mxCell>
        <mxCell id="R_-WvSaThvEhrNufHfvD-319" value="" style="endArrow=none;html=1;fontSize=8;fontColor=#000000;strokeWidth=1;opacity=60;entryX=0;entryY=0.5;entryDx=0;entryDy=0;startArrow=none;startFill=0;exitX=0.1;exitY=0.5;exitDx=0;exitDy=0;exitPerimeter=0;" parent="1hqNCw-lQecjgoDk5Riq-114" source="R_-WvSaThvEhrNufHfvD-327" target="R_-WvSaThvEhrNufHfvD-310" edge="1">
          <mxGeometry width="50" height="50" as="geometry">
            <mxPoint x="86" y="50" as="sourcePoint" />
            <mxPoint x="136" y="30" as="targetPoint" />
            <Array as="points">
              <mxPoint x="116" y="50" />
            </Array>
          </mxGeometry>
        </mxCell>
        <mxCell id="R_-WvSaThvEhrNufHfvD-320" style="edgeStyle=orthogonalEdgeStyle;rounded=0;orthogonalLoop=1;jettySize=auto;html=1;entryX=0.028;entryY=0.247;entryDx=0;entryDy=0;entryPerimeter=0;fontSize=8;fontColor=#000000;endArrow=none;endFill=0;strokeWidth=1;opacity=60;" parent="1hqNCw-lQecjgoDk5Riq-114" edge="1">
          <mxGeometry as="geometry">
            <mxPoint x="100" y="63" as="sourcePoint" />
            <mxPoint x="100" y="63" as="targetPoint" />
          </mxGeometry>
        </mxCell>
        <mxCell id="R_-WvSaThvEhrNufHfvD-321" value="" style="endArrow=classic;html=1;fontSize=8;fontColor=#000000;strokeWidth=1;opacity=60;fillColor=#f5f5f5;strokeColor=#666666;" parent="1hqNCw-lQecjgoDk5Riq-114" edge="1">
          <mxGeometry width="50" height="50" as="geometry">
            <mxPoint x="60" y="50" as="sourcePoint" />
            <mxPoint x="90" y="10" as="targetPoint" />
          </mxGeometry>
        </mxCell>
        <mxCell id="R_-WvSaThvEhrNufHfvD-325" value="" style="shape=curlyBracket;whiteSpace=wrap;html=1;rounded=1;fontSize=8;fontColor=#000000;strokeWidth=1;opacity=60;rotation=-90;" parent="1hqNCw-lQecjgoDk5Riq-114" vertex="1">
          <mxGeometry x="68" y="63" width="4" height="20" as="geometry" />
        </mxCell>
        <mxCell id="R_-WvSaThvEhrNufHfvD-326" value="&lt;span&gt;Δ&lt;sub&gt;t&lt;/sub&gt;&lt;/span&gt;" style="text;html=1;align=center;verticalAlign=middle;whiteSpace=wrap;rounded=0;fontSize=8;fillColor=#ffffff;opacity=90;" parent="1hqNCw-lQecjgoDk5Riq-114" vertex="1">
          <mxGeometry x="61" y="74" width="19" height="16" as="geometry" />
        </mxCell>
        <mxCell id="R_-WvSaThvEhrNufHfvD-327" value="" style="shape=curlyBracket;whiteSpace=wrap;html=1;rounded=1;fontSize=8;fontColor=#000000;strokeWidth=1;opacity=60;rotation=-180;" parent="1hqNCw-lQecjgoDk5Riq-114" vertex="1">
          <mxGeometry x="81" y="50" width="4" height="19" as="geometry" />
        </mxCell>
        <mxCell id="R_-WvSaThvEhrNufHfvD-329" value="&lt;span&gt;dz&lt;/span&gt;(t&lt;sub&gt;4&lt;/sub&gt;)/dt=&lt;span&gt;ODENet(z&lt;sub&gt;t4&lt;/sub&gt;)&lt;/span&gt;&lt;span class=&quot;ILfuVd&quot;&gt;&lt;span class=&quot;hgKElc&quot;&gt;&lt;/span&gt;&lt;/span&gt;&lt;span&gt;&lt;span&gt;&lt;/span&gt;&lt;/span&gt;" style="text;html=1;strokeColor=none;fillColor=none;align=center;verticalAlign=middle;whiteSpace=wrap;rounded=0;fontSize=8;fontColor=#000000;opacity=60;" parent="1hqNCw-lQecjgoDk5Riq-114" vertex="1">
          <mxGeometry x="85" width="90" height="20" as="geometry" />
        </mxCell>
        <mxCell id="R_-WvSaThvEhrNufHfvD-335" value="" style="endArrow=none;dashed=1;html=1;dashPattern=1 3;strokeWidth=2;fontSize=8;fontColor=#000000;opacity=60;" parent="1hqNCw-lQecjgoDk5Riq-114" edge="1">
          <mxGeometry y="-11.5" width="50" height="50" as="geometry">
            <mxPoint x="100" y="96.5" as="sourcePoint" />
            <mxPoint x="100" y="66.5" as="targetPoint" />
          </mxGeometry>
        </mxCell>
        <mxCell id="R_-WvSaThvEhrNufHfvD-224" value="" style="endArrow=none;html=1;fontSize=8;fontColor=#000000;strokeWidth=1;opacity=60;" parent="1hqNCw-lQecjgoDk5Riq-114" edge="1">
          <mxGeometry x="60" y="101.5" width="50" height="50" as="geometry">
            <mxPoint x="60" y="131.5" as="sourcePoint" />
            <mxPoint x="80" y="111.5" as="targetPoint" />
          </mxGeometry>
        </mxCell>
        <mxCell id="R_-WvSaThvEhrNufHfvD-225" value="" style="endArrow=none;html=1;fontSize=8;fontColor=#000000;strokeWidth=1;opacity=60;" parent="1hqNCw-lQecjgoDk5Riq-114" edge="1">
          <mxGeometry x="60" y="101.5" width="50" height="50" as="geometry">
            <mxPoint x="80" y="111.5" as="sourcePoint" />
            <mxPoint x="100" y="101.5" as="targetPoint" />
          </mxGeometry>
        </mxCell>
        <mxCell id="R_-WvSaThvEhrNufHfvD-226" value="" style="endArrow=none;html=1;fontSize=8;fontColor=#000000;strokeWidth=1;opacity=60;" parent="1hqNCw-lQecjgoDk5Riq-114" edge="1">
          <mxGeometry x="60" y="101.5" width="50" height="50" as="geometry">
            <mxPoint x="100" y="101.5" as="sourcePoint" />
            <mxPoint x="120" y="111.5" as="targetPoint" />
          </mxGeometry>
        </mxCell>
        <mxCell id="R_-WvSaThvEhrNufHfvD-227" value="" style="endArrow=none;html=1;fontSize=8;fontColor=#000000;strokeWidth=1;opacity=60;" parent="1hqNCw-lQecjgoDk5Riq-114" edge="1">
          <mxGeometry x="60" y="101.5" width="50" height="50" as="geometry">
            <mxPoint x="120" y="111.5" as="sourcePoint" />
            <mxPoint x="140" y="126.5" as="targetPoint" />
          </mxGeometry>
        </mxCell>
        <mxCell id="R_-WvSaThvEhrNufHfvD-228" value="" style="endArrow=none;html=1;fontSize=8;fontColor=#000000;strokeWidth=1;opacity=60;" parent="1hqNCw-lQecjgoDk5Riq-114" edge="1">
          <mxGeometry x="60" y="101.5" width="50" height="50" as="geometry">
            <mxPoint x="140" y="126.5" as="sourcePoint" />
            <mxPoint x="160" y="142.5" as="targetPoint" />
          </mxGeometry>
        </mxCell>
        <mxCell id="R_-WvSaThvEhrNufHfvD-229" value="" style="endArrow=none;html=1;fontSize=8;fontColor=#000000;strokeWidth=1;fillColor=#60a917;strokeColor=#2D7600;" parent="1hqNCw-lQecjgoDk5Riq-114" edge="1">
          <mxGeometry x="60" y="101.5" width="50" height="50" as="geometry">
            <mxPoint x="160" y="142.5" as="sourcePoint" />
            <mxPoint x="180" y="161.5" as="targetPoint" />
          </mxGeometry>
        </mxCell>
        <mxCell id="R_-WvSaThvEhrNufHfvD-230" value="" style="endArrow=none;html=1;fontSize=8;fontColor=#000000;strokeWidth=1;fillColor=#60a917;strokeColor=#2D7600;" parent="1hqNCw-lQecjgoDk5Riq-114" edge="1">
          <mxGeometry x="60" y="101.5" width="50" height="50" as="geometry">
            <mxPoint x="180" y="161.5" as="sourcePoint" />
            <mxPoint x="200" y="167.5" as="targetPoint" />
          </mxGeometry>
        </mxCell>
        <mxCell id="R_-WvSaThvEhrNufHfvD-231" value="" style="endArrow=none;html=1;fontSize=8;fontColor=#000000;strokeWidth=1;fillColor=#60a917;strokeColor=#2D7600;" parent="1hqNCw-lQecjgoDk5Riq-114" edge="1">
          <mxGeometry x="60" y="101.5" width="50" height="50" as="geometry">
            <mxPoint x="200" y="167.5" as="sourcePoint" />
            <mxPoint x="220" y="171.5" as="targetPoint" />
          </mxGeometry>
        </mxCell>
        <mxCell id="R_-WvSaThvEhrNufHfvD-232" value="" style="endArrow=none;html=1;fontSize=8;fontColor=#000000;strokeWidth=1;fillColor=#60a917;strokeColor=#2D7600;" parent="1hqNCw-lQecjgoDk5Riq-114" edge="1">
          <mxGeometry x="60" y="101.5" width="50" height="50" as="geometry">
            <mxPoint x="220" y="171.5" as="sourcePoint" />
            <mxPoint x="240" y="172.5" as="targetPoint" />
          </mxGeometry>
        </mxCell>
        <mxCell id="R_-WvSaThvEhrNufHfvD-234" value="" style="endArrow=none;html=1;fontSize=8;fontColor=#000000;strokeWidth=1;opacity=60;fillColor=#60a917;strokeColor=#2D7600;" parent="1hqNCw-lQecjgoDk5Riq-114" edge="1">
          <mxGeometry x="60" y="101.5" width="50" height="50" as="geometry">
            <mxPoint x="60" y="131.5" as="sourcePoint" />
            <mxPoint x="80" y="111.5" as="targetPoint" />
          </mxGeometry>
        </mxCell>
        <mxCell id="R_-WvSaThvEhrNufHfvD-235" value="" style="endArrow=none;html=1;fontSize=8;fontColor=#000000;strokeWidth=1;opacity=60;fillColor=#60a917;strokeColor=#2D7600;" parent="1hqNCw-lQecjgoDk5Riq-114" edge="1">
          <mxGeometry x="60" y="101.5" width="50" height="50" as="geometry">
            <mxPoint x="80" y="111.5" as="sourcePoint" />
            <mxPoint x="100" y="101.5" as="targetPoint" />
          </mxGeometry>
        </mxCell>
        <mxCell id="R_-WvSaThvEhrNufHfvD-236" value="" style="endArrow=none;html=1;fontSize=8;fontColor=#000000;strokeWidth=1;opacity=60;fillColor=#60a917;strokeColor=#2D7600;" parent="1hqNCw-lQecjgoDk5Riq-114" edge="1">
          <mxGeometry x="60" y="101.5" width="50" height="50" as="geometry">
            <mxPoint x="100" y="101.5" as="sourcePoint" />
            <mxPoint x="120" y="111.5" as="targetPoint" />
          </mxGeometry>
        </mxCell>
        <mxCell id="R_-WvSaThvEhrNufHfvD-237" value="" style="endArrow=none;html=1;fontSize=8;fontColor=#000000;strokeWidth=1;opacity=60;fillColor=#60a917;strokeColor=#2D7600;" parent="1hqNCw-lQecjgoDk5Riq-114" edge="1">
          <mxGeometry x="60" y="101.5" width="50" height="50" as="geometry">
            <mxPoint x="120" y="111.5" as="sourcePoint" />
            <mxPoint x="140" y="126.5" as="targetPoint" />
          </mxGeometry>
        </mxCell>
        <mxCell id="R_-WvSaThvEhrNufHfvD-238" value="" style="endArrow=none;html=1;fontSize=8;fontColor=#000000;strokeWidth=1;opacity=60;fillColor=#60a917;strokeColor=#2D7600;" parent="1hqNCw-lQecjgoDk5Riq-114" edge="1">
          <mxGeometry x="60" y="101.5" width="50" height="50" as="geometry">
            <mxPoint x="140" y="126.5" as="sourcePoint" />
            <mxPoint x="160" y="142.5" as="targetPoint" />
          </mxGeometry>
        </mxCell>
        <mxCell id="R_-WvSaThvEhrNufHfvD-239" value="" style="shape=waypoint;sketch=0;fillStyle=solid;size=6;pointerEvents=1;points=[];fillColor=#60a917;resizable=0;rotatable=0;perimeter=centerPerimeter;snapToPoint=1;fontSize=8;fontColor=#ffffff;strokeWidth=1;strokeColor=#2D7600;" parent="1hqNCw-lQecjgoDk5Riq-114" vertex="1">
          <mxGeometry x="220" y="152.5" width="40" height="40" as="geometry" />
        </mxCell>
        <mxCell id="R_-WvSaThvEhrNufHfvD-291" value="" style="curved=1;endArrow=none;html=1;fontSize=8;fontColor=#000000;strokeWidth=1;opacity=20;endFill=0;fillColor=#d80073;strokeColor=#A50040;" parent="1hqNCw-lQecjgoDk5Riq-114" edge="1">
          <mxGeometry x="60" y="101.5" width="50" height="50" as="geometry">
            <mxPoint x="60" y="149.5" as="sourcePoint" />
            <mxPoint x="260" y="189.5" as="targetPoint" />
            <Array as="points">
              <mxPoint x="90" y="109.5" />
              <mxPoint x="140" y="139.5" />
              <mxPoint x="190" y="189.5" />
            </Array>
          </mxGeometry>
        </mxCell>
        <mxCell id="R_-WvSaThvEhrNufHfvD-292" value="" style="endArrow=none;html=1;fontSize=8;fontColor=#000000;strokeWidth=1;opacity=60;" parent="1hqNCw-lQecjgoDk5Riq-114" edge="1">
          <mxGeometry x="60" y="101.5" width="50" height="50" as="geometry">
            <mxPoint x="60" y="149.5" as="sourcePoint" />
            <mxPoint x="80" y="129.5" as="targetPoint" />
          </mxGeometry>
        </mxCell>
        <mxCell id="R_-WvSaThvEhrNufHfvD-293" value="" style="endArrow=none;html=1;fontSize=8;fontColor=#000000;strokeWidth=1;opacity=60;" parent="1hqNCw-lQecjgoDk5Riq-114" edge="1">
          <mxGeometry x="60" y="101.5" width="50" height="50" as="geometry">
            <mxPoint x="80" y="129.5" as="sourcePoint" />
            <mxPoint x="100" y="119.5" as="targetPoint" />
          </mxGeometry>
        </mxCell>
        <mxCell id="R_-WvSaThvEhrNufHfvD-294" value="" style="endArrow=none;html=1;fontSize=8;fontColor=#000000;strokeWidth=1;opacity=60;" parent="1hqNCw-lQecjgoDk5Riq-114" edge="1">
          <mxGeometry x="60" y="101.5" width="50" height="50" as="geometry">
            <mxPoint x="100" y="119.5" as="sourcePoint" />
            <mxPoint x="120" y="129.5" as="targetPoint" />
          </mxGeometry>
        </mxCell>
        <mxCell id="R_-WvSaThvEhrNufHfvD-295" value="" style="endArrow=none;html=1;fontSize=8;fontColor=#000000;strokeWidth=1;opacity=60;" parent="1hqNCw-lQecjgoDk5Riq-114" edge="1">
          <mxGeometry x="60" y="101.5" width="50" height="50" as="geometry">
            <mxPoint x="120" y="129.5" as="sourcePoint" />
            <mxPoint x="140" y="144.5" as="targetPoint" />
          </mxGeometry>
        </mxCell>
        <mxCell id="R_-WvSaThvEhrNufHfvD-296" value="" style="endArrow=none;html=1;fontSize=8;fontColor=#000000;strokeWidth=1;opacity=60;" parent="1hqNCw-lQecjgoDk5Riq-114" edge="1">
          <mxGeometry x="60" y="101.5" width="50" height="50" as="geometry">
            <mxPoint x="140" y="144.5" as="sourcePoint" />
            <mxPoint x="160" y="160.5" as="targetPoint" />
          </mxGeometry>
        </mxCell>
        <mxCell id="R_-WvSaThvEhrNufHfvD-297" value="" style="endArrow=none;html=1;fontSize=8;fontColor=#000000;strokeWidth=1;fillColor=#60a917;strokeColor=#2D7600;" parent="1hqNCw-lQecjgoDk5Riq-114" edge="1">
          <mxGeometry x="60" y="101.5" width="50" height="50" as="geometry">
            <mxPoint x="160" y="160.5" as="sourcePoint" />
            <mxPoint x="180" y="179.5" as="targetPoint" />
          </mxGeometry>
        </mxCell>
        <mxCell id="R_-WvSaThvEhrNufHfvD-298" value="" style="endArrow=none;html=1;fontSize=8;fontColor=#000000;strokeWidth=1;fillColor=#60a917;strokeColor=#2D7600;" parent="1hqNCw-lQecjgoDk5Riq-114" edge="1">
          <mxGeometry x="60" y="101.5" width="50" height="50" as="geometry">
            <mxPoint x="180" y="179.5" as="sourcePoint" />
            <mxPoint x="200" y="185.5" as="targetPoint" />
          </mxGeometry>
        </mxCell>
        <mxCell id="R_-WvSaThvEhrNufHfvD-299" value="" style="endArrow=none;html=1;fontSize=8;fontColor=#000000;strokeWidth=1;fillColor=#60a917;strokeColor=#2D7600;" parent="1hqNCw-lQecjgoDk5Riq-114" edge="1">
          <mxGeometry x="60" y="101.5" width="50" height="50" as="geometry">
            <mxPoint x="200" y="185.5" as="sourcePoint" />
            <mxPoint x="219.9999999999999" y="189.5" as="targetPoint" />
          </mxGeometry>
        </mxCell>
        <mxCell id="R_-WvSaThvEhrNufHfvD-300" value="" style="endArrow=none;html=1;fontSize=8;fontColor=#000000;strokeWidth=1;fillColor=#60a917;strokeColor=#2D7600;" parent="1hqNCw-lQecjgoDk5Riq-114" edge="1">
          <mxGeometry x="60" y="101.5" width="50" height="50" as="geometry">
            <mxPoint x="219.9999999999999" y="189.5" as="sourcePoint" />
            <mxPoint x="239.9999999999999" y="190.5" as="targetPoint" />
          </mxGeometry>
        </mxCell>
        <mxCell id="R_-WvSaThvEhrNufHfvD-301" value="" style="endArrow=none;html=1;fontSize=8;fontColor=#000000;strokeWidth=1;fillColor=#60a917;strokeColor=#2D7600;" parent="1hqNCw-lQecjgoDk5Riq-114" edge="1">
          <mxGeometry x="60" y="101.5" width="50" height="50" as="geometry">
            <mxPoint x="239.9999999999999" y="190.5" as="sourcePoint" />
            <mxPoint x="260" y="191.5" as="targetPoint" />
          </mxGeometry>
        </mxCell>
        <mxCell id="R_-WvSaThvEhrNufHfvD-302" value="" style="endArrow=none;html=1;fontSize=8;fontColor=#000000;strokeWidth=1;opacity=60;fillColor=#60a917;strokeColor=#2D7600;" parent="1hqNCw-lQecjgoDk5Riq-114" edge="1">
          <mxGeometry x="60" y="101.5" width="50" height="50" as="geometry">
            <mxPoint x="60" y="149.5" as="sourcePoint" />
            <mxPoint x="80" y="129.5" as="targetPoint" />
          </mxGeometry>
        </mxCell>
        <mxCell id="R_-WvSaThvEhrNufHfvD-303" value="" style="endArrow=none;html=1;fontSize=8;fontColor=#000000;strokeWidth=1;opacity=60;fillColor=#60a917;strokeColor=#2D7600;" parent="1hqNCw-lQecjgoDk5Riq-114" edge="1">
          <mxGeometry x="60" y="101.5" width="50" height="50" as="geometry">
            <mxPoint x="80" y="129.5" as="sourcePoint" />
            <mxPoint x="100" y="119.5" as="targetPoint" />
          </mxGeometry>
        </mxCell>
        <mxCell id="R_-WvSaThvEhrNufHfvD-304" value="" style="endArrow=none;html=1;fontSize=8;fontColor=#000000;strokeWidth=1;opacity=60;fillColor=#60a917;strokeColor=#2D7600;" parent="1hqNCw-lQecjgoDk5Riq-114" edge="1">
          <mxGeometry x="60" y="101.5" width="50" height="50" as="geometry">
            <mxPoint x="100" y="119.5" as="sourcePoint" />
            <mxPoint x="120" y="129.5" as="targetPoint" />
          </mxGeometry>
        </mxCell>
        <mxCell id="R_-WvSaThvEhrNufHfvD-305" value="" style="endArrow=none;html=1;fontSize=8;fontColor=#000000;strokeWidth=1;opacity=60;fillColor=#60a917;strokeColor=#2D7600;" parent="1hqNCw-lQecjgoDk5Riq-114" edge="1">
          <mxGeometry x="60" y="101.5" width="50" height="50" as="geometry">
            <mxPoint x="120" y="129.5" as="sourcePoint" />
            <mxPoint x="140" y="144.5" as="targetPoint" />
          </mxGeometry>
        </mxCell>
        <mxCell id="R_-WvSaThvEhrNufHfvD-306" value="" style="endArrow=none;html=1;fontSize=8;fontColor=#000000;strokeWidth=1;opacity=60;fillColor=#60a917;strokeColor=#2D7600;" parent="1hqNCw-lQecjgoDk5Riq-114" edge="1">
          <mxGeometry x="60" y="101.5" width="50" height="50" as="geometry">
            <mxPoint x="140" y="144.5" as="sourcePoint" />
            <mxPoint x="160" y="160.5" as="targetPoint" />
          </mxGeometry>
        </mxCell>
        <mxCell id="R_-WvSaThvEhrNufHfvD-336" value="" style="endArrow=none;dashed=1;html=1;dashPattern=1 3;strokeWidth=2;fontSize=8;fontColor=#000000;opacity=60;" parent="1hqNCw-lQecjgoDk5Riq-114" edge="1">
          <mxGeometry x="59.799999999999955" y="103.5" width="50" height="50" as="geometry">
            <mxPoint x="199.79999999999995" y="158.5" as="sourcePoint" />
            <mxPoint x="199.79999999999995" y="126.5" as="targetPoint" />
          </mxGeometry>
        </mxCell>
        <mxCell id="RxjEodVqocuGxgpkdKOe-16" value="Solver Step" style="text;html=1;strokeColor=none;fillColor=none;align=center;verticalAlign=middle;whiteSpace=wrap;rounded=0;dashed=1;fontSize=9;fontStyle=4" parent="1hqNCw-lQecjgoDk5Riq-114" vertex="1">
          <mxGeometry y="19.5" width="40" height="20" as="geometry" />
        </mxCell>
        <mxCell id="RxjEodVqocuGxgpkdKOe-17" value="0" style="text;html=1;strokeColor=none;fillColor=none;align=center;verticalAlign=middle;whiteSpace=wrap;rounded=0;dashed=1;fontSize=9;fontStyle=1" parent="1hqNCw-lQecjgoDk5Riq-114" vertex="1">
          <mxGeometry y="39.5" width="40" height="20" as="geometry" />
        </mxCell>
        <mxCell id="RxjEodVqocuGxgpkdKOe-18" value="1" style="text;html=1;strokeColor=none;fillColor=none;align=center;verticalAlign=middle;whiteSpace=wrap;rounded=0;dashed=1;fontSize=9;fontStyle=1" parent="1hqNCw-lQecjgoDk5Riq-114" vertex="1">
          <mxGeometry y="59.5" width="40" height="20" as="geometry" />
        </mxCell>
        <mxCell id="RxjEodVqocuGxgpkdKOe-19" value="2" style="text;html=1;strokeColor=none;fillColor=none;align=center;verticalAlign=middle;whiteSpace=wrap;rounded=0;dashed=1;fontSize=9;fontStyle=1" parent="1hqNCw-lQecjgoDk5Riq-114" vertex="1">
          <mxGeometry y="82.5" width="40" height="20" as="geometry" />
        </mxCell>
        <mxCell id="RxjEodVqocuGxgpkdKOe-23" value="n-1" style="text;html=1;strokeColor=none;fillColor=none;align=center;verticalAlign=middle;whiteSpace=wrap;rounded=0;dashed=1;fontSize=9;fontStyle=1" parent="1hqNCw-lQecjgoDk5Riq-114" vertex="1">
          <mxGeometry y="119.5" width="40" height="20" as="geometry" />
        </mxCell>
        <mxCell id="RxjEodVqocuGxgpkdKOe-27" value="" style="shape=waypoint;sketch=0;fillStyle=solid;size=6;pointerEvents=1;points=[];fillColor=#60a917;resizable=0;rotatable=0;perimeter=centerPerimeter;snapToPoint=1;fontSize=8;fontColor=#ffffff;strokeWidth=1;strokeColor=#2D7600;" parent="1hqNCw-lQecjgoDk5Riq-114" vertex="1">
          <mxGeometry x="81" y="41" width="40" height="40" as="geometry" />
        </mxCell>
        <mxCell id="RxjEodVqocuGxgpkdKOe-29" value="n" style="text;html=1;strokeColor=none;fillColor=none;align=center;verticalAlign=middle;whiteSpace=wrap;rounded=0;dashed=1;fontSize=9;fontStyle=1" parent="1hqNCw-lQecjgoDk5Riq-114" vertex="1">
          <mxGeometry y="138.5" width="40" height="20" as="geometry" />
        </mxCell>
        <mxCell id="RxjEodVqocuGxgpkdKOe-30" value="" style="endArrow=classic;html=1;endFill=1;exitX=0.15;exitY=1.029;exitDx=0;exitDy=0;exitPerimeter=0;" parent="1hqNCw-lQecjgoDk5Riq-114" source="vnLwDHoqT5jpjLEuEO11-5" edge="1">
          <mxGeometry y="-23.5" width="50" height="50" as="geometry">
            <mxPoint x="50" y="201.5" as="sourcePoint" />
            <mxPoint x="280" y="201.5" as="targetPoint" />
          </mxGeometry>
        </mxCell>
        <mxCell id="vnLwDHoqT5jpjLEuEO11-5" value="time" style="text;html=1;strokeColor=none;fillColor=none;align=center;verticalAlign=middle;whiteSpace=wrap;rounded=0;" parent="1hqNCw-lQecjgoDk5Riq-114" vertex="1">
          <mxGeometry x="15" y="181.5" width="40" height="20" as="geometry" />
        </mxCell>
        <mxCell id="1hqNCw-lQecjgoDk5Riq-112" value="" style="endArrow=none;dashed=1;html=1;dashPattern=1 3;strokeWidth=2;fontSize=8;fontColor=#000000;opacity=60;" edge="1" parent="1hqNCw-lQecjgoDk5Riq-114">
          <mxGeometry x="-80.19999999999999" y="18.5" width="50" height="50" as="geometry">
            <mxPoint x="19.5" y="116.5" as="sourcePoint" />
            <mxPoint x="19.5" y="106.5" as="targetPoint" />
          </mxGeometry>
        </mxCell>
        <mxCell id="RxjEodVqocuGxgpkdKOe-33" value="(D)" style="text;html=1;strokeColor=none;fillColor=none;align=center;verticalAlign=middle;whiteSpace=wrap;rounded=0;dashed=1;fontSize=12;opacity=90;fontStyle=1" parent="1hqNCw-lQecjgoDk5Riq-114" vertex="1">
          <mxGeometry x="8.75" y="-20" width="22.5" height="40" as="geometry" />
        </mxCell>
        <mxCell id="1hqNCw-lQecjgoDk5Riq-16" value="" style="line;strokeWidth=1;direction=south;html=1;" vertex="1" parent="1">
          <mxGeometry x="60" y="549.5" width="10" height="10" as="geometry" />
        </mxCell>
        <mxCell id="1hqNCw-lQecjgoDk5Riq-21" value="" style="endArrow=none;html=1;fontSize=8;fontColor=#000000;strokeWidth=1;opacity=60;" edge="1" parent="1">
          <mxGeometry x="20" y="380" width="50" height="50" as="geometry">
            <mxPoint x="265" y="559.5" as="sourcePoint" />
            <mxPoint x="265" y="549.5" as="targetPoint" />
          </mxGeometry>
        </mxCell>
        <mxCell id="1hqNCw-lQecjgoDk5Riq-22" value="" style="line;strokeWidth=1;direction=south;html=1;" vertex="1" parent="1">
          <mxGeometry x="80" y="549.5" width="10" height="10" as="geometry" />
        </mxCell>
        <mxCell id="1hqNCw-lQecjgoDk5Riq-23" value="" style="line;strokeWidth=1;direction=south;html=1;" vertex="1" parent="1">
          <mxGeometry x="95" y="549.5" width="20" height="10" as="geometry" />
        </mxCell>
        <mxCell id="1hqNCw-lQecjgoDk5Riq-24" value="" style="line;strokeWidth=1;direction=south;html=1;" vertex="1" parent="1">
          <mxGeometry x="115" y="549.5" width="20" height="10" as="geometry" />
        </mxCell>
        <mxCell id="1hqNCw-lQecjgoDk5Riq-25" value="" style="line;strokeWidth=1;direction=south;html=1;" vertex="1" parent="1">
          <mxGeometry x="135" y="549.5" width="20" height="10" as="geometry" />
        </mxCell>
        <mxCell id="1hqNCw-lQecjgoDk5Riq-26" value="" style="line;strokeWidth=1;direction=south;html=1;" vertex="1" parent="1">
          <mxGeometry x="155" y="549.5" width="20" height="10" as="geometry" />
        </mxCell>
        <mxCell id="1hqNCw-lQecjgoDk5Riq-27" value="" style="line;strokeWidth=1;direction=south;html=1;" vertex="1" parent="1">
          <mxGeometry x="175" y="549.5" width="20" height="10" as="geometry" />
        </mxCell>
        <mxCell id="1hqNCw-lQecjgoDk5Riq-28" value="" style="line;strokeWidth=1;direction=south;html=1;" vertex="1" parent="1">
          <mxGeometry x="195" y="549.5" width="20" height="10" as="geometry" />
        </mxCell>
        <mxCell id="1hqNCw-lQecjgoDk5Riq-29" value="" style="line;strokeWidth=1;direction=south;html=1;" vertex="1" parent="1">
          <mxGeometry x="215" y="549.5" width="20" height="10" as="geometry" />
        </mxCell>
        <mxCell id="1hqNCw-lQecjgoDk5Riq-30" value="" style="line;strokeWidth=1;direction=south;html=1;" vertex="1" parent="1">
          <mxGeometry x="235" y="549.5" width="20" height="10" as="geometry" />
        </mxCell>
        <mxCell id="1hqNCw-lQecjgoDk5Riq-33" value="" style="shape=curlyBracket;whiteSpace=wrap;html=1;rounded=1;fontSize=8;fontColor=#000000;strokeWidth=1;opacity=60;rotation=-90;" vertex="1" parent="1">
          <mxGeometry x="152" y="551.5" width="6" height="20" as="geometry" />
        </mxCell>
        <mxCell id="1hqNCw-lQecjgoDk5Riq-34" value="&lt;span style=&quot;font-size: 10px;&quot;&gt;Δ&lt;sub style=&quot;font-size: 10px;&quot;&gt;t&lt;/sub&gt;&lt;/span&gt;" style="text;html=1;strokeColor=none;fillColor=none;align=center;verticalAlign=middle;whiteSpace=wrap;rounded=0;fontSize=10;fontColor=#000000;opacity=60;" vertex="1" parent="1">
          <mxGeometry x="146" y="562.5" width="20" height="15" as="geometry" />
        </mxCell>
        <mxCell id="1hqNCw-lQecjgoDk5Riq-36" value="t&lt;sub style=&quot;font-size: 10px;&quot;&gt;4&lt;/sub&gt;" style="text;html=1;strokeColor=none;fillColor=none;align=center;verticalAlign=middle;whiteSpace=wrap;rounded=0;fontSize=10;fontColor=#000000;opacity=60;" vertex="1" parent="1">
          <mxGeometry x="45" y="559.5" width="40" height="20" as="geometry" />
        </mxCell>
        <mxCell id="1hqNCw-lQecjgoDk5Riq-38" value="t&lt;sub style=&quot;font-size: 10px;&quot;&gt;5&lt;/sub&gt;" style="text;html=1;strokeColor=none;fillColor=none;align=center;verticalAlign=middle;whiteSpace=wrap;rounded=0;fontSize=10;fontColor=#000000;opacity=60;" vertex="1" parent="1">
          <mxGeometry x="245" y="560" width="40" height="20" as="geometry" />
        </mxCell>
        <mxCell id="1hqNCw-lQecjgoDk5Riq-62" value="" style="curved=1;endArrow=blockThin;html=1;fontSize=8;fontColor=#000000;strokeWidth=1;opacity=20;endFill=1;fillColor=#d80073;strokeColor=#A50040;" edge="1" parent="1">
          <mxGeometry x="60" y="404" width="50" height="50" as="geometry">
            <mxPoint x="60" y="452" as="sourcePoint" />
            <mxPoint x="260" y="492" as="targetPoint" />
            <Array as="points">
              <mxPoint x="90" y="412" />
              <mxPoint x="140" y="442" />
              <mxPoint x="190" y="492" />
            </Array>
          </mxGeometry>
        </mxCell>
        <mxCell id="1hqNCw-lQecjgoDk5Riq-63" value="" style="endArrow=none;html=1;fontSize=8;fontColor=#000000;strokeWidth=1;opacity=60;" edge="1" parent="1">
          <mxGeometry x="60" y="404" width="50" height="50" as="geometry">
            <mxPoint x="60" y="452" as="sourcePoint" />
            <mxPoint x="80" y="432" as="targetPoint" />
          </mxGeometry>
        </mxCell>
        <mxCell id="1hqNCw-lQecjgoDk5Riq-64" value="" style="endArrow=none;html=1;fontSize=8;fontColor=#000000;strokeWidth=1;opacity=60;" edge="1" parent="1">
          <mxGeometry x="60" y="404" width="50" height="50" as="geometry">
            <mxPoint x="80" y="432" as="sourcePoint" />
            <mxPoint x="100" y="422" as="targetPoint" />
          </mxGeometry>
        </mxCell>
        <mxCell id="1hqNCw-lQecjgoDk5Riq-65" value="" style="endArrow=none;html=1;fontSize=8;fontColor=#000000;strokeWidth=1;opacity=60;" edge="1" parent="1">
          <mxGeometry x="60" y="404" width="50" height="50" as="geometry">
            <mxPoint x="100" y="422" as="sourcePoint" />
            <mxPoint x="120" y="432" as="targetPoint" />
          </mxGeometry>
        </mxCell>
        <mxCell id="1hqNCw-lQecjgoDk5Riq-66" value="" style="endArrow=none;html=1;fontSize=8;fontColor=#000000;strokeWidth=1;opacity=60;" edge="1" parent="1">
          <mxGeometry x="60" y="404" width="50" height="50" as="geometry">
            <mxPoint x="120" y="432" as="sourcePoint" />
            <mxPoint x="140" y="447" as="targetPoint" />
          </mxGeometry>
        </mxCell>
        <mxCell id="1hqNCw-lQecjgoDk5Riq-67" value="" style="endArrow=none;html=1;fontSize=8;fontColor=#000000;strokeWidth=1;opacity=60;" edge="1" parent="1">
          <mxGeometry x="60" y="404" width="50" height="50" as="geometry">
            <mxPoint x="140" y="447" as="sourcePoint" />
            <mxPoint x="160" y="463" as="targetPoint" />
          </mxGeometry>
        </mxCell>
        <mxCell id="1hqNCw-lQecjgoDk5Riq-68" value="" style="endArrow=none;html=1;fontSize=8;fontColor=#000000;strokeWidth=1;fillColor=#60a917;strokeColor=#2D7600;" edge="1" parent="1">
          <mxGeometry x="60" y="404" width="50" height="50" as="geometry">
            <mxPoint x="160" y="463" as="sourcePoint" />
            <mxPoint x="180" y="482" as="targetPoint" />
          </mxGeometry>
        </mxCell>
        <mxCell id="1hqNCw-lQecjgoDk5Riq-69" value="" style="endArrow=none;html=1;fontSize=8;fontColor=#000000;strokeWidth=1;fillColor=#60a917;strokeColor=#2D7600;" edge="1" parent="1">
          <mxGeometry x="60" y="404" width="50" height="50" as="geometry">
            <mxPoint x="180" y="482" as="sourcePoint" />
            <mxPoint x="200" y="488" as="targetPoint" />
          </mxGeometry>
        </mxCell>
        <mxCell id="1hqNCw-lQecjgoDk5Riq-70" value="" style="endArrow=none;html=1;fontSize=8;fontColor=#000000;strokeWidth=1;fillColor=#60a917;strokeColor=#2D7600;" edge="1" parent="1">
          <mxGeometry x="60" y="404" width="50" height="50" as="geometry">
            <mxPoint x="200" y="488" as="sourcePoint" />
            <mxPoint x="220" y="492" as="targetPoint" />
          </mxGeometry>
        </mxCell>
        <mxCell id="1hqNCw-lQecjgoDk5Riq-71" value="" style="endArrow=none;html=1;fontSize=8;fontColor=#000000;strokeWidth=1;fillColor=#60a917;strokeColor=#2D7600;" edge="1" parent="1">
          <mxGeometry x="60" y="404" width="50" height="50" as="geometry">
            <mxPoint x="220" y="492" as="sourcePoint" />
            <mxPoint x="240" y="493" as="targetPoint" />
          </mxGeometry>
        </mxCell>
        <mxCell id="1hqNCw-lQecjgoDk5Riq-72" value="" style="endArrow=none;html=1;fontSize=8;fontColor=#000000;strokeWidth=1;fillColor=#60a917;strokeColor=#2D7600;" edge="1" parent="1">
          <mxGeometry x="60" y="404" width="50" height="50" as="geometry">
            <mxPoint x="240" y="493" as="sourcePoint" />
            <mxPoint x="260" y="494" as="targetPoint" />
          </mxGeometry>
        </mxCell>
        <mxCell id="1hqNCw-lQecjgoDk5Riq-73" value="" style="endArrow=none;html=1;fontSize=8;fontColor=#000000;strokeWidth=1;opacity=60;fillColor=#60a917;strokeColor=#2D7600;" edge="1" parent="1">
          <mxGeometry x="60" y="404" width="50" height="50" as="geometry">
            <mxPoint x="60" y="452" as="sourcePoint" />
            <mxPoint x="80" y="432" as="targetPoint" />
          </mxGeometry>
        </mxCell>
        <mxCell id="1hqNCw-lQecjgoDk5Riq-74" value="" style="endArrow=none;html=1;fontSize=8;fontColor=#000000;strokeWidth=1;opacity=60;fillColor=#60a917;strokeColor=#2D7600;" edge="1" parent="1">
          <mxGeometry x="60" y="404" width="50" height="50" as="geometry">
            <mxPoint x="80" y="432" as="sourcePoint" />
            <mxPoint x="100" y="422" as="targetPoint" />
          </mxGeometry>
        </mxCell>
        <mxCell id="1hqNCw-lQecjgoDk5Riq-75" value="" style="endArrow=none;html=1;fontSize=8;fontColor=#000000;strokeWidth=1;opacity=60;fillColor=#60a917;strokeColor=#2D7600;" edge="1" parent="1">
          <mxGeometry x="60" y="404" width="50" height="50" as="geometry">
            <mxPoint x="100" y="422" as="sourcePoint" />
            <mxPoint x="120" y="432" as="targetPoint" />
          </mxGeometry>
        </mxCell>
        <mxCell id="1hqNCw-lQecjgoDk5Riq-76" value="" style="endArrow=none;html=1;fontSize=8;fontColor=#000000;strokeWidth=1;opacity=60;fillColor=#60a917;strokeColor=#2D7600;" edge="1" parent="1">
          <mxGeometry x="60" y="404" width="50" height="50" as="geometry">
            <mxPoint x="120" y="432" as="sourcePoint" />
            <mxPoint x="140" y="447" as="targetPoint" />
          </mxGeometry>
        </mxCell>
        <mxCell id="1hqNCw-lQecjgoDk5Riq-77" value="" style="endArrow=none;html=1;fontSize=8;fontColor=#000000;strokeWidth=1;opacity=60;fillColor=#60a917;strokeColor=#2D7600;" edge="1" parent="1">
          <mxGeometry x="60" y="404" width="50" height="50" as="geometry">
            <mxPoint x="140" y="447" as="sourcePoint" />
            <mxPoint x="160" y="463" as="targetPoint" />
          </mxGeometry>
        </mxCell>
        <mxCell id="1hqNCw-lQecjgoDk5Riq-86" value="" style="endArrow=classic;html=1;endFill=1;exitX=0.15;exitY=1.029;exitDx=0;exitDy=0;exitPerimeter=0;" edge="1" parent="1" source="1hqNCw-lQecjgoDk5Riq-87">
          <mxGeometry x="20" y="380" width="50" height="50" as="geometry">
            <mxPoint x="55" y="554.5" as="sourcePoint" />
            <mxPoint x="285" y="554.5" as="targetPoint" />
          </mxGeometry>
        </mxCell>
        <mxCell id="1hqNCw-lQecjgoDk5Riq-87" value="time" style="text;html=1;strokeColor=none;fillColor=none;align=center;verticalAlign=middle;whiteSpace=wrap;rounded=0;" vertex="1" parent="1">
          <mxGeometry x="20" y="534.5" width="40" height="20" as="geometry" />
        </mxCell>
        <mxCell id="1hqNCw-lQecjgoDk5Riq-88" value="" style="curved=1;endArrow=blockThin;html=1;fontSize=8;fontColor=#000000;strokeWidth=1;opacity=20;endFill=1;fillColor=#d80073;strokeColor=#A50040;" edge="1" parent="1">
          <mxGeometry x="60" y="413" width="50" height="50" as="geometry">
            <mxPoint x="60" y="461" as="sourcePoint" />
            <mxPoint x="260.5" y="501" as="targetPoint" />
            <Array as="points">
              <mxPoint x="90" y="421" />
              <mxPoint x="140" y="451" />
              <mxPoint x="190" y="501" />
            </Array>
          </mxGeometry>
        </mxCell>
        <mxCell id="1hqNCw-lQecjgoDk5Riq-89" value="" style="curved=1;endArrow=blockThin;html=1;fontSize=8;fontColor=#000000;strokeWidth=1;opacity=20;endFill=1;fillColor=#d80073;strokeColor=#A50040;" edge="1" parent="1">
          <mxGeometry x="60" y="422" width="50" height="50" as="geometry">
            <mxPoint x="60" y="470" as="sourcePoint" />
            <mxPoint x="260.5" y="514" as="targetPoint" />
            <Array as="points">
              <mxPoint x="90" y="430" />
              <mxPoint x="140" y="460" />
              <mxPoint x="190" y="510" />
            </Array>
          </mxGeometry>
        </mxCell>
        <mxCell id="1hqNCw-lQecjgoDk5Riq-90" value="" style="curved=1;endArrow=blockThin;html=1;fontSize=8;fontColor=#000000;strokeWidth=1;opacity=20;endFill=1;fillColor=#d80073;strokeColor=#A50040;" edge="1" parent="1">
          <mxGeometry x="60" y="393" width="50" height="50" as="geometry">
            <mxPoint x="60" y="441" as="sourcePoint" />
            <mxPoint x="260.75" y="468" as="targetPoint" />
            <Array as="points">
              <mxPoint x="90" y="401" />
              <mxPoint x="140" y="431" />
              <mxPoint x="190" y="481" />
            </Array>
          </mxGeometry>
        </mxCell>
        <mxCell id="1hqNCw-lQecjgoDk5Riq-91" value="" style="curved=1;endArrow=blockThin;html=1;fontSize=8;fontColor=#000000;strokeWidth=1;opacity=20;endFill=1;fillColor=#d80073;strokeColor=#A50040;" edge="1" parent="1">
          <mxGeometry x="60" y="383" width="50" height="50" as="geometry">
            <mxPoint x="60.000000000000114" y="431" as="sourcePoint" />
            <mxPoint x="261.25" y="438" as="targetPoint" />
            <Array as="points">
              <mxPoint x="90" y="391" />
              <mxPoint x="140" y="421" />
              <mxPoint x="190" y="471" />
              <mxPoint x="228.25" y="458" />
            </Array>
          </mxGeometry>
        </mxCell>
        <mxCell id="1hqNCw-lQecjgoDk5Riq-92" value="" style="curved=1;endArrow=blockThin;html=1;fontSize=8;fontColor=#000000;strokeWidth=1;opacity=20;endFill=1;fillColor=#d80073;strokeColor=#A50040;" edge="1" parent="1">
          <mxGeometry x="60" y="372" width="50" height="50" as="geometry">
            <mxPoint x="60.000000000000114" y="420" as="sourcePoint" />
            <mxPoint x="261.75" y="420" as="targetPoint" />
            <Array as="points">
              <mxPoint x="90" y="380" />
              <mxPoint x="140" y="410" />
              <mxPoint x="190" y="460" />
              <mxPoint x="228.25" y="447" />
            </Array>
          </mxGeometry>
        </mxCell>
        <mxCell id="1hqNCw-lQecjgoDk5Riq-93" value="" style="curved=1;endArrow=blockThin;html=1;fontSize=8;fontColor=#000000;strokeWidth=1;opacity=20;endFill=1;fillColor=#d80073;strokeColor=#A50040;" edge="1" parent="1">
          <mxGeometry x="60" y="433" width="50" height="50" as="geometry">
            <mxPoint x="60" y="481" as="sourcePoint" />
            <mxPoint x="260.5" y="525" as="targetPoint" />
            <Array as="points">
              <mxPoint x="90" y="441" />
              <mxPoint x="140" y="471" />
              <mxPoint x="190" y="521" />
            </Array>
          </mxGeometry>
        </mxCell>
        <mxCell id="1hqNCw-lQecjgoDk5Riq-94" value="" style="curved=1;endArrow=blockThin;html=1;fontSize=8;fontColor=#000000;strokeWidth=1;opacity=20;endFill=1;fillColor=#d80073;strokeColor=#A50040;" edge="1" parent="1">
          <mxGeometry x="60" y="442.5" width="50" height="50" as="geometry">
            <mxPoint x="60" y="490.5" as="sourcePoint" />
            <mxPoint x="260.5" y="534.5" as="targetPoint" />
            <Array as="points">
              <mxPoint x="90" y="450.5" />
              <mxPoint x="140" y="480.5" />
              <mxPoint x="190" y="530.5" />
            </Array>
          </mxGeometry>
        </mxCell>
        <mxCell id="1hqNCw-lQecjgoDk5Riq-95" value="" style="curved=1;endArrow=blockThin;html=1;fontSize=8;fontColor=#000000;strokeWidth=1;opacity=20;endFill=1;fillColor=#d80073;strokeColor=#A50040;" edge="1" parent="1">
          <mxGeometry x="60" y="451" width="50" height="50" as="geometry">
            <mxPoint x="60" y="499" as="sourcePoint" />
            <mxPoint x="260.5" y="543" as="targetPoint" />
            <Array as="points">
              <mxPoint x="90" y="459" />
              <mxPoint x="140" y="489" />
              <mxPoint x="190" y="539" />
            </Array>
          </mxGeometry>
        </mxCell>
        <mxCell id="1hqNCw-lQecjgoDk5Riq-96" value="" style="curved=1;endArrow=blockThin;html=1;fontSize=8;fontColor=#000000;strokeWidth=1;opacity=20;endFill=1;fillColor=#d80073;strokeColor=#A50040;" edge="1" parent="1">
          <mxGeometry x="60" y="462.5" width="50" height="50" as="geometry">
            <mxPoint x="60" y="510.5" as="sourcePoint" />
            <mxPoint x="202.5" y="548" as="targetPoint" />
            <Array as="points">
              <mxPoint x="90" y="470.5" />
              <mxPoint x="140" y="500.5" />
              <mxPoint x="182.5" y="538" />
            </Array>
          </mxGeometry>
        </mxCell>
        <mxCell id="1hqNCw-lQecjgoDk5Riq-97" value="" style="curved=1;endArrow=blockThin;html=1;fontSize=8;fontColor=#000000;strokeWidth=1;opacity=20;endFill=1;fillColor=#d80073;strokeColor=#A50040;entryX=0.078;entryY=0.594;entryDx=0;entryDy=0;entryPerimeter=0;" edge="1" parent="1" target="1hqNCw-lQecjgoDk5Riq-27">
          <mxGeometry x="60" y="473" width="50" height="50" as="geometry">
            <mxPoint x="60" y="521" as="sourcePoint" />
            <mxPoint x="192.5" y="558" as="targetPoint" />
            <Array as="points">
              <mxPoint x="90" y="481" />
              <mxPoint x="140" y="511" />
              <mxPoint x="162.5" y="538" />
            </Array>
          </mxGeometry>
        </mxCell>
        <mxCell id="1hqNCw-lQecjgoDk5Riq-98" value="" style="curved=1;endArrow=blockThin;html=1;fontSize=8;fontColor=#000000;strokeWidth=1;opacity=20;endFill=1;fillColor=#d80073;strokeColor=#A50040;" edge="1" parent="1">
          <mxGeometry x="60" y="485.22" width="50" height="50" as="geometry">
            <mxPoint x="60" y="533.22" as="sourcePoint" />
            <mxPoint x="162.5" y="548" as="targetPoint" />
            <Array as="points">
              <mxPoint x="90" y="493.22" />
              <mxPoint x="132.5" y="518" />
              <mxPoint x="142.5" y="533" />
            </Array>
          </mxGeometry>
        </mxCell>
        <mxCell id="1hqNCw-lQecjgoDk5Riq-99" value="" style="curved=1;endArrow=blockThin;html=1;fontSize=8;fontColor=#000000;strokeWidth=1;opacity=20;endFill=1;fillColor=#d80073;strokeColor=#A50040;entryX=0.078;entryY=0.384;entryDx=0;entryDy=0;entryPerimeter=0;" edge="1" parent="1" target="1hqNCw-lQecjgoDk5Riq-25">
          <mxGeometry x="62" y="500" width="50" height="50" as="geometry">
            <mxPoint x="62" y="548" as="sourcePoint" />
            <mxPoint x="152.5" y="548" as="targetPoint" />
            <Array as="points">
              <mxPoint x="92" y="508" />
              <mxPoint x="124.5" y="520.78" />
              <mxPoint x="134.5" y="538" />
            </Array>
          </mxGeometry>
        </mxCell>
        <mxCell id="1hqNCw-lQecjgoDk5Riq-100" value="" style="curved=1;endArrow=blockThin;html=1;fontSize=8;fontColor=#000000;strokeWidth=1;opacity=20;endFill=1;fillColor=#d80073;strokeColor=#A50040;" edge="1" parent="1">
          <mxGeometry x="62.34000000000003" y="515.36" width="50" height="50" as="geometry">
            <mxPoint x="72.5" y="548" as="sourcePoint" />
            <mxPoint x="132.5" y="548" as="targetPoint" />
            <Array as="points">
              <mxPoint x="92.34000000000003" y="523.36" />
              <mxPoint x="112.5" y="523" />
              <mxPoint x="124.84000000000003" y="536.14" />
            </Array>
          </mxGeometry>
        </mxCell>
        <mxCell id="1hqNCw-lQecjgoDk5Riq-101" value="" style="curved=1;endArrow=blockThin;html=1;fontSize=8;fontColor=#000000;strokeWidth=1;opacity=20;endFill=1;fillColor=#d80073;strokeColor=#A50040;" edge="1" parent="1">
          <mxGeometry x="67.34000000000003" y="522.3599999999999" width="50" height="50" as="geometry">
            <mxPoint x="87.5" y="543" as="sourcePoint" />
            <mxPoint x="115" y="543" as="targetPoint" />
            <Array as="points">
              <mxPoint x="105" y="525.43" />
            </Array>
          </mxGeometry>
        </mxCell>
        <mxCell id="1hqNCw-lQecjgoDk5Riq-102" value="" style="curved=1;endArrow=blockThin;html=1;fontSize=8;fontColor=#000000;strokeWidth=1;opacity=20;endFill=1;fillColor=#d80073;strokeColor=#A50040;" edge="1" parent="1">
          <mxGeometry x="60" y="360" width="50" height="50" as="geometry">
            <mxPoint x="132.5" y="388" as="sourcePoint" />
            <mxPoint x="261.5" y="398" as="targetPoint" />
            <Array as="points">
              <mxPoint x="190" y="448" />
              <mxPoint x="228.25" y="435" />
            </Array>
          </mxGeometry>
        </mxCell>
        <mxCell id="1hqNCw-lQecjgoDk5Riq-103" value="" style="curved=1;endArrow=none;html=1;fontSize=8;fontColor=#000000;strokeWidth=1;opacity=20;endFill=0;fillColor=#d80073;strokeColor=#A50040;" edge="1" parent="1">
          <mxGeometry x="39.84000000000003" y="385.64999999999986" width="50" height="50" as="geometry">
            <mxPoint x="60.5" y="406" as="sourcePoint" />
            <mxPoint x="82.5" y="389" as="targetPoint" />
            <Array as="points" />
          </mxGeometry>
        </mxCell>
        <mxCell id="1hqNCw-lQecjgoDk5Riq-104" value="" style="curved=1;endArrow=blockThin;html=1;fontSize=8;fontColor=#000000;strokeWidth=1;opacity=20;endFill=1;fillColor=#d80073;strokeColor=#A50040;" edge="1" parent="1">
          <mxGeometry x="56" y="341" width="50" height="50" as="geometry">
            <mxPoint x="146" y="388" as="sourcePoint" />
            <mxPoint x="246" y="388" as="targetPoint" />
            <Array as="points">
              <mxPoint x="186" y="429" />
              <mxPoint x="224.25" y="416" />
            </Array>
          </mxGeometry>
        </mxCell>
        <mxCell id="1hqNCw-lQecjgoDk5Riq-105" value="" style="curved=1;endArrow=blockThin;html=1;fontSize=8;fontColor=#000000;strokeWidth=1;opacity=20;endFill=1;fillColor=#d80073;strokeColor=#A50040;" edge="1" parent="1">
          <mxGeometry x="60" y="330" width="50" height="50" as="geometry">
            <mxPoint x="166" y="388" as="sourcePoint" />
            <mxPoint x="229" y="388" as="targetPoint" />
            <Array as="points">
              <mxPoint x="190" y="418" />
              <mxPoint x="217.5" y="405" />
            </Array>
          </mxGeometry>
        </mxCell>
        <mxCell id="1hqNCw-lQecjgoDk5Riq-106" value="" style="curved=1;endArrow=blockThin;html=1;fontSize=8;fontColor=#000000;strokeWidth=1;opacity=20;endFill=1;fillColor=#d80073;strokeColor=#A50040;" edge="1" parent="1">
          <mxGeometry x="53.5" y="313" width="50" height="50" as="geometry">
            <mxPoint x="180" y="388" as="sourcePoint" />
            <mxPoint x="211" y="388" as="targetPoint" />
            <Array as="points">
              <mxPoint x="183.5" y="401" />
              <mxPoint x="202.5" y="401" />
              <mxPoint x="211" y="388" />
            </Array>
          </mxGeometry>
        </mxCell>
        <mxCell id="1hqNCw-lQecjgoDk5Riq-117" value="Panel D" style="text;html=1;strokeColor=none;fillColor=none;align=center;verticalAlign=middle;whiteSpace=wrap;rounded=0;fontSize=8;" vertex="1" parent="1">
          <mxGeometry x="262.5" y="456.5" width="35" height="20" as="geometry" />
        </mxCell>
        <mxCell id="1hqNCw-lQecjgoDk5Riq-120" value="" style="endArrow=classic;html=1;fontSize=8;strokeColor=#36393d;opacity=80;exitX=0;exitY=0.75;exitDx=0;exitDy=0;fillColor=#eeeeee;" edge="1" parent="1" source="1hqNCw-lQecjgoDk5Riq-117">
          <mxGeometry width="50" height="50" relative="1" as="geometry">
            <mxPoint x="210" y="480" as="sourcePoint" />
            <mxPoint x="230" y="490" as="targetPoint" />
          </mxGeometry>
        </mxCell>
        <mxCell id="1hqNCw-lQecjgoDk5Riq-122" value="" style="shape=waypoint;sketch=0;fillStyle=solid;size=6;pointerEvents=1;points=[];fillColor=#60a917;resizable=0;rotatable=0;perimeter=centerPerimeter;snapToPoint=1;fontSize=8;fontColor=#ffffff;strokeWidth=1;strokeColor=#2D7600;" vertex="1" parent="1">
          <mxGeometry x="40" y="430" width="40" height="40" as="geometry" />
        </mxCell>
      </root>
    </mxGraphModel>
  </diagram>
</mxfile>
